<?xml version="1.0" encoding="utf-8" standalone="no"?>
<!DOCTYPE svg PUBLIC "-//W3C//DTD SVG 1.1//EN"
  "http://www.w3.org/Graphics/SVG/1.1/DTD/svg11.dtd">
<svg xmlns:xlink="http://www.w3.org/1999/xlink" width="720pt" height="288pt" viewBox="0 0 720 288" xmlns="http://www.w3.org/2000/svg" version="1.1">
 <metadata>
  <rdf:RDF xmlns:dc="http://purl.org/dc/elements/1.1/" xmlns:cc="http://creativecommons.org/ns#" xmlns:rdf="http://www.w3.org/1999/02/22-rdf-syntax-ns#">
   <cc:Work>
    <dc:type rdf:resource="http://purl.org/dc/dcmitype/StillImage"/>
    <dc:date>2022-04-04T13:12:26.186251</dc:date>
    <dc:format>image/svg+xml</dc:format>
    <dc:creator>
     <cc:Agent>
      <dc:title>Matplotlib v3.5.1, https://matplotlib.org/</dc:title>
     </cc:Agent>
    </dc:creator>
   </cc:Work>
  </rdf:RDF>
 </metadata>
 <defs>
  <style type="text/css">*{stroke-linejoin: round; stroke-linecap: butt}</style>
 </defs>
 <g id="figure_1">
  <g id="patch_1">
   <path d="M 0 288 
L 720 288 
L 720 0 
L 0 0 
L 0 288 
z
" style="fill: none"/>
  </g>
  <g id="axes_1">
   <g id="patch_2">
    <path d="M 51.575572 242.44 
L 344.5425 242.44 
L 344.5425 12.96 
L 51.575572 12.96 
z
" style="fill: #ffffff"/>
   </g>
   <g id="matplotlib.axis_1">
    <g id="xtick_1">
     <g id="line2d_1">
      <path d="M 51.575572 242.44 
L 51.575572 12.96 
" clip-path="url(#p203e8be282)" style="fill: none; stroke: #b0b0b0; stroke-width: 0.8; stroke-linecap: square"/>
     </g>
     <g id="line2d_2">
      <defs>
       <path id="m1157ca188f" d="M 0 0 
L 0 3.5 
" style="stroke: #000000; stroke-width: 0.8"/>
      </defs>
      <g>
       <use xlink:href="#m1157ca188f" x="51.575572" y="242.44" style="stroke: #000000; stroke-width: 0.8"/>
      </g>
     </g>
     <g id="text_1">
      <!-- 0 -->
      <g transform="translate(48.575572 257.7725)scale(0.12 -0.12)">
       <defs>
        <path id="TimesNewRomanPSMT-30" d="M 231 2094 
Q 231 2819 450 3342 
Q 669 3866 1031 4122 
Q 1313 4325 1613 4325 
Q 2100 4325 2488 3828 
Q 2972 3213 2972 2159 
Q 2972 1422 2759 906 
Q 2547 391 2217 158 
Q 1888 -75 1581 -75 
Q 975 -75 572 641 
Q 231 1244 231 2094 
z
M 844 2016 
Q 844 1141 1059 588 
Q 1238 122 1591 122 
Q 1759 122 1940 273 
Q 2122 425 2216 781 
Q 2359 1319 2359 2297 
Q 2359 3022 2209 3506 
Q 2097 3866 1919 4016 
Q 1791 4119 1609 4119 
Q 1397 4119 1231 3928 
Q 1006 3669 925 3112 
Q 844 2556 844 2016 
z
" transform="scale(0.015625)"/>
       </defs>
       <use xlink:href="#TimesNewRomanPSMT-30"/>
      </g>
     </g>
    </g>
    <g id="xtick_2">
     <g id="line2d_3">
      <path d="M 110.168958 242.44 
L 110.168958 12.96 
" clip-path="url(#p203e8be282)" style="fill: none; stroke: #b0b0b0; stroke-width: 0.8; stroke-linecap: square"/>
     </g>
     <g id="line2d_4">
      <g>
       <use xlink:href="#m1157ca188f" x="110.168958" y="242.44" style="stroke: #000000; stroke-width: 0.8"/>
      </g>
     </g>
     <g id="text_2">
      <!-- 100 -->
      <g transform="translate(101.168958 257.7725)scale(0.12 -0.12)">
       <defs>
        <path id="TimesNewRomanPSMT-31" d="M 750 3822 
L 1781 4325 
L 1884 4325 
L 1884 747 
Q 1884 391 1914 303 
Q 1944 216 2037 169 
Q 2131 122 2419 116 
L 2419 0 
L 825 0 
L 825 116 
Q 1125 122 1212 167 
Q 1300 213 1334 289 
Q 1369 366 1369 747 
L 1369 3034 
Q 1369 3497 1338 3628 
Q 1316 3728 1258 3775 
Q 1200 3822 1119 3822 
Q 1003 3822 797 3725 
L 750 3822 
z
" transform="scale(0.015625)"/>
       </defs>
       <use xlink:href="#TimesNewRomanPSMT-31"/>
       <use xlink:href="#TimesNewRomanPSMT-30" x="50"/>
       <use xlink:href="#TimesNewRomanPSMT-30" x="100"/>
      </g>
     </g>
    </g>
    <g id="xtick_3">
     <g id="line2d_5">
      <path d="M 168.762343 242.44 
L 168.762343 12.96 
" clip-path="url(#p203e8be282)" style="fill: none; stroke: #b0b0b0; stroke-width: 0.8; stroke-linecap: square"/>
     </g>
     <g id="line2d_6">
      <g>
       <use xlink:href="#m1157ca188f" x="168.762343" y="242.44" style="stroke: #000000; stroke-width: 0.8"/>
      </g>
     </g>
     <g id="text_3">
      <!-- 200 -->
      <g transform="translate(159.762343 257.7725)scale(0.12 -0.12)">
       <defs>
        <path id="TimesNewRomanPSMT-32" d="M 2934 816 
L 2638 0 
L 138 0 
L 138 116 
Q 1241 1122 1691 1759 
Q 2141 2397 2141 2925 
Q 2141 3328 1894 3587 
Q 1647 3847 1303 3847 
Q 991 3847 742 3664 
Q 494 3481 375 3128 
L 259 3128 
Q 338 3706 661 4015 
Q 984 4325 1469 4325 
Q 1984 4325 2329 3994 
Q 2675 3663 2675 3213 
Q 2675 2891 2525 2569 
Q 2294 2063 1775 1497 
Q 997 647 803 472 
L 1909 472 
Q 2247 472 2383 497 
Q 2519 522 2628 598 
Q 2738 675 2819 816 
L 2934 816 
z
" transform="scale(0.015625)"/>
       </defs>
       <use xlink:href="#TimesNewRomanPSMT-32"/>
       <use xlink:href="#TimesNewRomanPSMT-30" x="50"/>
       <use xlink:href="#TimesNewRomanPSMT-30" x="100"/>
      </g>
     </g>
    </g>
    <g id="xtick_4">
     <g id="line2d_7">
      <path d="M 227.355729 242.44 
L 227.355729 12.96 
" clip-path="url(#p203e8be282)" style="fill: none; stroke: #b0b0b0; stroke-width: 0.8; stroke-linecap: square"/>
     </g>
     <g id="line2d_8">
      <g>
       <use xlink:href="#m1157ca188f" x="227.355729" y="242.44" style="stroke: #000000; stroke-width: 0.8"/>
      </g>
     </g>
     <g id="text_4">
      <!-- 300 -->
      <g transform="translate(218.355729 257.7725)scale(0.12 -0.12)">
       <defs>
        <path id="TimesNewRomanPSMT-33" d="M 325 3431 
Q 506 3859 782 4092 
Q 1059 4325 1472 4325 
Q 1981 4325 2253 3994 
Q 2459 3747 2459 3466 
Q 2459 3003 1878 2509 
Q 2269 2356 2469 2072 
Q 2669 1788 2669 1403 
Q 2669 853 2319 450 
Q 1863 -75 997 -75 
Q 569 -75 414 31 
Q 259 138 259 259 
Q 259 350 332 419 
Q 406 488 509 488 
Q 588 488 669 463 
Q 722 447 909 348 
Q 1097 250 1169 231 
Q 1284 197 1416 197 
Q 1734 197 1970 444 
Q 2206 691 2206 1028 
Q 2206 1275 2097 1509 
Q 2016 1684 1919 1775 
Q 1784 1900 1550 2001 
Q 1316 2103 1072 2103 
L 972 2103 
L 972 2197 
Q 1219 2228 1467 2375 
Q 1716 2522 1828 2728 
Q 1941 2934 1941 3181 
Q 1941 3503 1739 3701 
Q 1538 3900 1238 3900 
Q 753 3900 428 3381 
L 325 3431 
z
" transform="scale(0.015625)"/>
       </defs>
       <use xlink:href="#TimesNewRomanPSMT-33"/>
       <use xlink:href="#TimesNewRomanPSMT-30" x="50"/>
       <use xlink:href="#TimesNewRomanPSMT-30" x="100"/>
      </g>
     </g>
    </g>
    <g id="xtick_5">
     <g id="line2d_9">
      <path d="M 285.949114 242.44 
L 285.949114 12.96 
" clip-path="url(#p203e8be282)" style="fill: none; stroke: #b0b0b0; stroke-width: 0.8; stroke-linecap: square"/>
     </g>
     <g id="line2d_10">
      <g>
       <use xlink:href="#m1157ca188f" x="285.949114" y="242.44" style="stroke: #000000; stroke-width: 0.8"/>
      </g>
     </g>
     <g id="text_5">
      <!-- 400 -->
      <g transform="translate(276.949114 257.7725)scale(0.12 -0.12)">
       <defs>
        <path id="TimesNewRomanPSMT-34" d="M 2978 1563 
L 2978 1119 
L 2409 1119 
L 2409 0 
L 1894 0 
L 1894 1119 
L 100 1119 
L 100 1519 
L 2066 4325 
L 2409 4325 
L 2409 1563 
L 2978 1563 
z
M 1894 1563 
L 1894 3666 
L 406 1563 
L 1894 1563 
z
" transform="scale(0.015625)"/>
       </defs>
       <use xlink:href="#TimesNewRomanPSMT-34"/>
       <use xlink:href="#TimesNewRomanPSMT-30" x="50"/>
       <use xlink:href="#TimesNewRomanPSMT-30" x="100"/>
      </g>
     </g>
    </g>
    <g id="xtick_6">
     <g id="line2d_11">
      <path d="M 344.5425 242.44 
L 344.5425 12.96 
" clip-path="url(#p203e8be282)" style="fill: none; stroke: #b0b0b0; stroke-width: 0.8; stroke-linecap: square"/>
     </g>
     <g id="line2d_12">
      <g>
       <use xlink:href="#m1157ca188f" x="344.5425" y="242.44" style="stroke: #000000; stroke-width: 0.8"/>
      </g>
     </g>
     <g id="text_6">
      <!-- 500 -->
      <g transform="translate(335.5425 257.7725)scale(0.12 -0.12)">
       <defs>
        <path id="TimesNewRomanPSMT-35" d="M 2778 4238 
L 2534 3706 
L 1259 3706 
L 981 3138 
Q 1809 3016 2294 2522 
Q 2709 2097 2709 1522 
Q 2709 1188 2573 903 
Q 2438 619 2231 419 
Q 2025 219 1772 97 
Q 1413 -75 1034 -75 
Q 653 -75 479 54 
Q 306 184 306 341 
Q 306 428 378 495 
Q 450 563 559 563 
Q 641 563 702 538 
Q 763 513 909 409 
Q 1144 247 1384 247 
Q 1750 247 2026 523 
Q 2303 800 2303 1197 
Q 2303 1581 2056 1914 
Q 1809 2247 1375 2428 
Q 1034 2569 447 2591 
L 1259 4238 
L 2778 4238 
z
" transform="scale(0.015625)"/>
       </defs>
       <use xlink:href="#TimesNewRomanPSMT-35"/>
       <use xlink:href="#TimesNewRomanPSMT-30" x="50"/>
       <use xlink:href="#TimesNewRomanPSMT-30" x="100"/>
      </g>
     </g>
    </g>
    <g id="text_7">
     <!-- Latency (μs) -->
     <g transform="translate(167.689661 272.671875)scale(0.12 -0.12)">
      <defs>
       <path id="TimesNewRomanPSMT-4c" d="M 3669 1172 
L 3772 1150 
L 3409 0 
L 128 0 
L 128 116 
L 288 116 
Q 556 116 672 291 
Q 738 391 738 753 
L 738 3488 
Q 738 3884 650 3984 
Q 528 4122 288 4122 
L 128 4122 
L 128 4238 
L 2047 4238 
L 2047 4122 
Q 1709 4125 1573 4059 
Q 1438 3994 1388 3894 
Q 1338 3794 1338 3416 
L 1338 753 
Q 1338 494 1388 397 
Q 1425 331 1503 300 
Q 1581 269 1991 269 
L 2300 269 
Q 2788 269 2984 341 
Q 3181 413 3343 595 
Q 3506 778 3669 1172 
z
" transform="scale(0.015625)"/>
       <path id="TimesNewRomanPSMT-61" d="M 1822 413 
Q 1381 72 1269 19 
Q 1100 -59 909 -59 
Q 613 -59 420 144 
Q 228 347 228 678 
Q 228 888 322 1041 
Q 450 1253 767 1440 
Q 1084 1628 1822 1897 
L 1822 2009 
Q 1822 2438 1686 2597 
Q 1550 2756 1291 2756 
Q 1094 2756 978 2650 
Q 859 2544 859 2406 
L 866 2225 
Q 866 2081 792 2003 
Q 719 1925 600 1925 
Q 484 1925 411 2006 
Q 338 2088 338 2228 
Q 338 2497 613 2722 
Q 888 2947 1384 2947 
Q 1766 2947 2009 2819 
Q 2194 2722 2281 2516 
Q 2338 2381 2338 1966 
L 2338 994 
Q 2338 584 2353 492 
Q 2369 400 2405 369 
Q 2441 338 2488 338 
Q 2538 338 2575 359 
Q 2641 400 2828 588 
L 2828 413 
Q 2478 -56 2159 -56 
Q 2006 -56 1915 50 
Q 1825 156 1822 413 
z
M 1822 616 
L 1822 1706 
Q 1350 1519 1213 1441 
Q 966 1303 859 1153 
Q 753 1003 753 825 
Q 753 600 887 451 
Q 1022 303 1197 303 
Q 1434 303 1822 616 
z
" transform="scale(0.015625)"/>
       <path id="TimesNewRomanPSMT-74" d="M 1031 3803 
L 1031 2863 
L 1700 2863 
L 1700 2644 
L 1031 2644 
L 1031 788 
Q 1031 509 1111 412 
Q 1191 316 1316 316 
Q 1419 316 1516 380 
Q 1613 444 1666 569 
L 1788 569 
Q 1678 263 1478 108 
Q 1278 -47 1066 -47 
Q 922 -47 784 33 
Q 647 113 581 261 
Q 516 409 516 719 
L 516 2644 
L 63 2644 
L 63 2747 
Q 234 2816 414 2980 
Q 594 3144 734 3369 
Q 806 3488 934 3803 
L 1031 3803 
z
" transform="scale(0.015625)"/>
       <path id="TimesNewRomanPSMT-65" d="M 681 1784 
Q 678 1147 991 784 
Q 1303 422 1725 422 
Q 2006 422 2214 576 
Q 2422 731 2563 1106 
L 2659 1044 
Q 2594 616 2278 264 
Q 1963 -88 1488 -88 
Q 972 -88 605 314 
Q 238 716 238 1394 
Q 238 2128 614 2539 
Q 991 2950 1559 2950 
Q 2041 2950 2350 2633 
Q 2659 2316 2659 1784 
L 681 1784 
z
M 681 1966 
L 2006 1966 
Q 1991 2241 1941 2353 
Q 1863 2528 1708 2628 
Q 1553 2728 1384 2728 
Q 1125 2728 920 2526 
Q 716 2325 681 1966 
z
" transform="scale(0.015625)"/>
       <path id="TimesNewRomanPSMT-6e" d="M 1034 2341 
Q 1538 2947 1994 2947 
Q 2228 2947 2397 2830 
Q 2566 2713 2666 2444 
Q 2734 2256 2734 1869 
L 2734 647 
Q 2734 375 2778 278 
Q 2813 200 2889 156 
Q 2966 113 3172 113 
L 3172 0 
L 1756 0 
L 1756 113 
L 1816 113 
Q 2016 113 2095 173 
Q 2175 234 2206 353 
Q 2219 400 2219 647 
L 2219 1819 
Q 2219 2209 2117 2386 
Q 2016 2563 1775 2563 
Q 1403 2563 1034 2156 
L 1034 647 
Q 1034 356 1069 288 
Q 1113 197 1189 155 
Q 1266 113 1500 113 
L 1500 0 
L 84 0 
L 84 113 
L 147 113 
Q 366 113 442 223 
Q 519 334 519 647 
L 519 1709 
Q 519 2225 495 2337 
Q 472 2450 423 2490 
Q 375 2531 294 2531 
Q 206 2531 84 2484 
L 38 2597 
L 900 2947 
L 1034 2947 
L 1034 2341 
z
" transform="scale(0.015625)"/>
       <path id="TimesNewRomanPSMT-63" d="M 2631 1088 
Q 2516 522 2178 217 
Q 1841 -88 1431 -88 
Q 944 -88 581 321 
Q 219 731 219 1428 
Q 219 2103 620 2525 
Q 1022 2947 1584 2947 
Q 2006 2947 2278 2723 
Q 2550 2500 2550 2259 
Q 2550 2141 2473 2067 
Q 2397 1994 2259 1994 
Q 2075 1994 1981 2113 
Q 1928 2178 1911 2362 
Q 1894 2547 1784 2644 
Q 1675 2738 1481 2738 
Q 1169 2738 978 2506 
Q 725 2200 725 1697 
Q 725 1184 976 792 
Q 1228 400 1656 400 
Q 1963 400 2206 609 
Q 2378 753 2541 1131 
L 2631 1088 
z
" transform="scale(0.015625)"/>
       <path id="TimesNewRomanPSMT-79" d="M 38 2863 
L 1372 2863 
L 1372 2747 
L 1306 2747 
Q 1166 2747 1095 2686 
Q 1025 2625 1025 2534 
Q 1025 2413 1128 2197 
L 1825 753 
L 2466 2334 
Q 2519 2463 2519 2588 
Q 2519 2644 2497 2672 
Q 2472 2706 2419 2726 
Q 2366 2747 2231 2747 
L 2231 2863 
L 3163 2863 
L 3163 2747 
Q 3047 2734 2984 2696 
Q 2922 2659 2847 2556 
Q 2819 2513 2741 2316 
L 1575 -541 
Q 1406 -956 1132 -1168 
Q 859 -1381 606 -1381 
Q 422 -1381 303 -1275 
Q 184 -1169 184 -1031 
Q 184 -900 270 -820 
Q 356 -741 506 -741 
Q 609 -741 788 -809 
Q 913 -856 944 -856 
Q 1038 -856 1148 -759 
Q 1259 -663 1372 -384 
L 1575 113 
L 547 2272 
Q 500 2369 397 2513 
Q 319 2622 269 2659 
Q 197 2709 38 2747 
L 38 2863 
z
" transform="scale(0.015625)"/>
       <path id="TimesNewRomanPSMT-20" transform="scale(0.015625)"/>
       <path id="TimesNewRomanPSMT-28" d="M 1988 -1253 
L 1988 -1369 
Q 1516 -1131 1200 -813 
Q 750 -359 506 256 
Q 263 872 263 1534 
Q 263 2503 741 3301 
Q 1219 4100 1988 4444 
L 1988 4313 
Q 1603 4100 1356 3731 
Q 1109 3363 987 2797 
Q 866 2231 866 1616 
Q 866 947 969 400 
Q 1050 -31 1165 -292 
Q 1281 -553 1476 -793 
Q 1672 -1034 1988 -1253 
z
" transform="scale(0.015625)"/>
       <path id="TimesNewRomanPSMT-3bc" d="M 2275 519 
Q 1709 -88 1291 -88 
Q 1022 -88 791 119 
L 791 -47 
Q 791 -334 878 -625 
Q 978 -947 978 -1050 
Q 978 -1194 887 -1287 
Q 797 -1381 663 -1381 
Q 525 -1381 444 -1272 
Q 363 -1163 363 -1009 
Q 363 -897 444 -603 
Q 538 -278 538 28 
L 538 2863 
L 1053 2863 
L 1053 1009 
Q 1053 728 1101 597 
Q 1150 466 1273 383 
Q 1397 300 1553 300 
Q 1831 300 2275 681 
L 2275 2863 
L 2794 2863 
L 2794 691 
Q 2794 416 2850 311 
Q 2906 206 3041 206 
Q 3253 206 3316 622 
L 3428 622 
Q 3369 -88 2828 -88 
Q 2594 -88 2439 70 
Q 2284 228 2275 519 
z
" transform="scale(0.015625)"/>
       <path id="TimesNewRomanPSMT-73" d="M 2050 2947 
L 2050 1972 
L 1947 1972 
Q 1828 2431 1642 2597 
Q 1456 2763 1169 2763 
Q 950 2763 815 2647 
Q 681 2531 681 2391 
Q 681 2216 781 2091 
Q 878 1963 1175 1819 
L 1631 1597 
Q 2266 1288 2266 781 
Q 2266 391 1970 151 
Q 1675 -88 1309 -88 
Q 1047 -88 709 6 
Q 606 38 541 38 
Q 469 38 428 -44 
L 325 -44 
L 325 978 
L 428 978 
Q 516 541 762 319 
Q 1009 97 1316 97 
Q 1531 97 1667 223 
Q 1803 350 1803 528 
Q 1803 744 1651 891 
Q 1500 1038 1047 1263 
Q 594 1488 453 1669 
Q 313 1847 313 2119 
Q 313 2472 555 2709 
Q 797 2947 1181 2947 
Q 1350 2947 1591 2875 
Q 1750 2828 1803 2828 
Q 1853 2828 1881 2850 
Q 1909 2872 1947 2947 
L 2050 2947 
z
" transform="scale(0.015625)"/>
       <path id="TimesNewRomanPSMT-29" d="M 144 4313 
L 144 4444 
Q 619 4209 934 3891 
Q 1381 3434 1625 2820 
Q 1869 2206 1869 1541 
Q 1869 572 1392 -226 
Q 916 -1025 144 -1369 
L 144 -1253 
Q 528 -1038 776 -670 
Q 1025 -303 1145 264 
Q 1266 831 1266 1447 
Q 1266 2113 1163 2663 
Q 1084 3094 967 3353 
Q 850 3613 656 3853 
Q 463 4094 144 4313 
z
" transform="scale(0.015625)"/>
      </defs>
      <use xlink:href="#TimesNewRomanPSMT-4c"/>
      <use xlink:href="#TimesNewRomanPSMT-61" x="61.083984"/>
      <use xlink:href="#TimesNewRomanPSMT-74" x="105.46875"/>
      <use xlink:href="#TimesNewRomanPSMT-65" x="133.251953"/>
      <use xlink:href="#TimesNewRomanPSMT-6e" x="177.636719"/>
      <use xlink:href="#TimesNewRomanPSMT-63" x="227.636719"/>
      <use xlink:href="#TimesNewRomanPSMT-79" x="272.021484"/>
      <use xlink:href="#TimesNewRomanPSMT-20" x="322.021484"/>
      <use xlink:href="#TimesNewRomanPSMT-28" x="347.021484"/>
      <use xlink:href="#TimesNewRomanPSMT-3bc" x="380.322266"/>
      <use xlink:href="#TimesNewRomanPSMT-73" x="433.935547"/>
      <use xlink:href="#TimesNewRomanPSMT-29" x="472.851562"/>
     </g>
    </g>
   </g>
   <g id="matplotlib.axis_2">
    <g id="ytick_1">
     <g id="line2d_13">
      <path d="M 51.575572 232.009091 
L 344.5425 232.009091 
" clip-path="url(#p203e8be282)" style="fill: none; stroke: #b0b0b0; stroke-width: 0.8; stroke-linecap: square"/>
     </g>
     <g id="line2d_14">
      <defs>
       <path id="m494fd165c9" d="M 0 0 
L -3.5 0 
" style="stroke: #000000; stroke-width: 0.8"/>
      </defs>
      <g>
       <use xlink:href="#m494fd165c9" x="51.575572" y="232.009091" style="stroke: #000000; stroke-width: 0.8"/>
      </g>
     </g>
     <g id="text_8">
      <!-- $\mathdefault{10^{0}}$ -->
      <g transform="translate(27.655572 237.325653)scale(0.12 -0.12)">
       <use xlink:href="#TimesNewRomanPSMT-31" transform="translate(0 0.582813)"/>
       <use xlink:href="#TimesNewRomanPSMT-30" transform="translate(50 0.582813)"/>
       <use xlink:href="#TimesNewRomanPSMT-30" transform="translate(101.502813 60.695312)scale(0.7)"/>
      </g>
     </g>
    </g>
    <g id="ytick_2">
     <g id="line2d_15">
      <path d="M 51.575572 200.217916 
L 344.5425 200.217916 
" clip-path="url(#p203e8be282)" style="fill: none; stroke: #b0b0b0; stroke-width: 0.8; stroke-linecap: square"/>
     </g>
     <g id="line2d_16">
      <g>
       <use xlink:href="#m494fd165c9" x="51.575572" y="200.217916" style="stroke: #000000; stroke-width: 0.8"/>
      </g>
     </g>
     <g id="text_9">
      <!-- $\mathdefault{10^{1}}$ -->
      <g transform="translate(27.655572 205.534478)scale(0.12 -0.12)">
       <use xlink:href="#TimesNewRomanPSMT-31" transform="translate(0 0.582813)"/>
       <use xlink:href="#TimesNewRomanPSMT-30" transform="translate(50 0.582813)"/>
       <use xlink:href="#TimesNewRomanPSMT-31" transform="translate(101.502813 60.695312)scale(0.7)"/>
      </g>
     </g>
    </g>
    <g id="ytick_3">
     <g id="line2d_17">
      <path d="M 51.575572 168.426741 
L 344.5425 168.426741 
" clip-path="url(#p203e8be282)" style="fill: none; stroke: #b0b0b0; stroke-width: 0.8; stroke-linecap: square"/>
     </g>
     <g id="line2d_18">
      <g>
       <use xlink:href="#m494fd165c9" x="51.575572" y="168.426741" style="stroke: #000000; stroke-width: 0.8"/>
      </g>
     </g>
     <g id="text_10">
      <!-- $\mathdefault{10^{2}}$ -->
      <g transform="translate(27.655572 173.743303)scale(0.12 -0.12)">
       <use xlink:href="#TimesNewRomanPSMT-31" transform="translate(0 0.582813)"/>
       <use xlink:href="#TimesNewRomanPSMT-30" transform="translate(50 0.582813)"/>
       <use xlink:href="#TimesNewRomanPSMT-32" transform="translate(101.502813 60.695312)scale(0.7)"/>
      </g>
     </g>
    </g>
    <g id="ytick_4">
     <g id="line2d_19">
      <path d="M 51.575572 136.635565 
L 344.5425 136.635565 
" clip-path="url(#p203e8be282)" style="fill: none; stroke: #b0b0b0; stroke-width: 0.8; stroke-linecap: square"/>
     </g>
     <g id="line2d_20">
      <g>
       <use xlink:href="#m494fd165c9" x="51.575572" y="136.635565" style="stroke: #000000; stroke-width: 0.8"/>
      </g>
     </g>
     <g id="text_11">
      <!-- $\mathdefault{10^{3}}$ -->
      <g transform="translate(27.655572 141.952128)scale(0.12 -0.12)">
       <use xlink:href="#TimesNewRomanPSMT-31" transform="translate(0 0.582813)"/>
       <use xlink:href="#TimesNewRomanPSMT-30" transform="translate(50 0.582813)"/>
       <use xlink:href="#TimesNewRomanPSMT-33" transform="translate(101.502813 60.695312)scale(0.7)"/>
      </g>
     </g>
    </g>
    <g id="ytick_5">
     <g id="line2d_21">
      <path d="M 51.575572 104.84439 
L 344.5425 104.84439 
" clip-path="url(#p203e8be282)" style="fill: none; stroke: #b0b0b0; stroke-width: 0.8; stroke-linecap: square"/>
     </g>
     <g id="line2d_22">
      <g>
       <use xlink:href="#m494fd165c9" x="51.575572" y="104.84439" style="stroke: #000000; stroke-width: 0.8"/>
      </g>
     </g>
     <g id="text_12">
      <!-- $\mathdefault{10^{4}}$ -->
      <g transform="translate(27.655572 110.160953)scale(0.12 -0.12)">
       <use xlink:href="#TimesNewRomanPSMT-31" transform="translate(0 0.582813)"/>
       <use xlink:href="#TimesNewRomanPSMT-30" transform="translate(50 0.582813)"/>
       <use xlink:href="#TimesNewRomanPSMT-34" transform="translate(101.502813 60.695312)scale(0.7)"/>
      </g>
     </g>
    </g>
    <g id="ytick_6">
     <g id="line2d_23">
      <path d="M 51.575572 73.053215 
L 344.5425 73.053215 
" clip-path="url(#p203e8be282)" style="fill: none; stroke: #b0b0b0; stroke-width: 0.8; stroke-linecap: square"/>
     </g>
     <g id="line2d_24">
      <g>
       <use xlink:href="#m494fd165c9" x="51.575572" y="73.053215" style="stroke: #000000; stroke-width: 0.8"/>
      </g>
     </g>
     <g id="text_13">
      <!-- $\mathdefault{10^{5}}$ -->
      <g transform="translate(27.655572 78.309778)scale(0.12 -0.12)">
       <use xlink:href="#TimesNewRomanPSMT-31" transform="translate(0 0.534375)"/>
       <use xlink:href="#TimesNewRomanPSMT-30" transform="translate(50 0.534375)"/>
       <use xlink:href="#TimesNewRomanPSMT-35" transform="translate(101.502813 60.646875)scale(0.7)"/>
      </g>
     </g>
    </g>
    <g id="ytick_7">
     <g id="line2d_25">
      <path d="M 51.575572 41.26204 
L 344.5425 41.26204 
" clip-path="url(#p203e8be282)" style="fill: none; stroke: #b0b0b0; stroke-width: 0.8; stroke-linecap: square"/>
     </g>
     <g id="line2d_26">
      <g>
       <use xlink:href="#m494fd165c9" x="51.575572" y="41.26204" style="stroke: #000000; stroke-width: 0.8"/>
      </g>
     </g>
     <g id="text_14">
      <!-- $\mathdefault{10^{6}}$ -->
      <g transform="translate(27.655572 46.578603)scale(0.12 -0.12)">
       <defs>
        <path id="TimesNewRomanPSMT-36" d="M 2869 4325 
L 2869 4209 
Q 2456 4169 2195 4045 
Q 1934 3922 1679 3669 
Q 1425 3416 1258 3105 
Q 1091 2794 978 2366 
Q 1428 2675 1881 2675 
Q 2316 2675 2634 2325 
Q 2953 1975 2953 1425 
Q 2953 894 2631 456 
Q 2244 -75 1606 -75 
Q 1172 -75 869 213 
Q 275 772 275 1663 
Q 275 2231 503 2743 
Q 731 3256 1154 3653 
Q 1578 4050 1965 4187 
Q 2353 4325 2688 4325 
L 2869 4325 
z
M 925 2138 
Q 869 1716 869 1456 
Q 869 1156 980 804 
Q 1091 453 1309 247 
Q 1469 100 1697 100 
Q 1969 100 2183 356 
Q 2397 613 2397 1088 
Q 2397 1622 2184 2012 
Q 1972 2403 1581 2403 
Q 1463 2403 1327 2353 
Q 1191 2303 925 2138 
z
" transform="scale(0.015625)"/>
       </defs>
       <use xlink:href="#TimesNewRomanPSMT-31" transform="translate(0 0.582813)"/>
       <use xlink:href="#TimesNewRomanPSMT-30" transform="translate(50 0.582813)"/>
       <use xlink:href="#TimesNewRomanPSMT-36" transform="translate(101.502813 60.695312)scale(0.7)"/>
      </g>
     </g>
    </g>
    <g id="ytick_8">
     <g id="line2d_27">
      <defs>
       <path id="mda5f647ae6" d="M 0 0 
L -2 0 
" style="stroke: #000000; stroke-width: 0.6"/>
      </defs>
      <g>
       <use xlink:href="#mda5f647ae6" x="51.575572" y="241.579188" style="stroke: #000000; stroke-width: 0.6"/>
      </g>
     </g>
    </g>
    <g id="ytick_9">
     <g id="line2d_28">
      <g>
       <use xlink:href="#mda5f647ae6" x="51.575572" y="239.061923" style="stroke: #000000; stroke-width: 0.6"/>
      </g>
     </g>
    </g>
    <g id="ytick_10">
     <g id="line2d_29">
      <g>
       <use xlink:href="#mda5f647ae6" x="51.575572" y="236.933606" style="stroke: #000000; stroke-width: 0.6"/>
      </g>
     </g>
    </g>
    <g id="ytick_11">
     <g id="line2d_30">
      <g>
       <use xlink:href="#mda5f647ae6" x="51.575572" y="235.089974" style="stroke: #000000; stroke-width: 0.6"/>
      </g>
     </g>
    </g>
    <g id="ytick_12">
     <g id="line2d_31">
      <g>
       <use xlink:href="#mda5f647ae6" x="51.575572" y="233.463775" style="stroke: #000000; stroke-width: 0.6"/>
      </g>
     </g>
    </g>
    <g id="ytick_13">
     <g id="line2d_32">
      <g>
       <use xlink:href="#mda5f647ae6" x="51.575572" y="222.438994" style="stroke: #000000; stroke-width: 0.6"/>
      </g>
     </g>
    </g>
    <g id="ytick_14">
     <g id="line2d_33">
      <g>
       <use xlink:href="#mda5f647ae6" x="51.575572" y="216.840846" style="stroke: #000000; stroke-width: 0.6"/>
      </g>
     </g>
    </g>
    <g id="ytick_15">
     <g id="line2d_34">
      <g>
       <use xlink:href="#mda5f647ae6" x="51.575572" y="212.868896" style="stroke: #000000; stroke-width: 0.6"/>
      </g>
     </g>
    </g>
    <g id="ytick_16">
     <g id="line2d_35">
      <g>
       <use xlink:href="#mda5f647ae6" x="51.575572" y="209.788013" style="stroke: #000000; stroke-width: 0.6"/>
      </g>
     </g>
    </g>
    <g id="ytick_17">
     <g id="line2d_36">
      <g>
       <use xlink:href="#mda5f647ae6" x="51.575572" y="207.270748" style="stroke: #000000; stroke-width: 0.6"/>
      </g>
     </g>
    </g>
    <g id="ytick_18">
     <g id="line2d_37">
      <g>
       <use xlink:href="#mda5f647ae6" x="51.575572" y="205.142431" style="stroke: #000000; stroke-width: 0.6"/>
      </g>
     </g>
    </g>
    <g id="ytick_19">
     <g id="line2d_38">
      <g>
       <use xlink:href="#mda5f647ae6" x="51.575572" y="203.298799" style="stroke: #000000; stroke-width: 0.6"/>
      </g>
     </g>
    </g>
    <g id="ytick_20">
     <g id="line2d_39">
      <g>
       <use xlink:href="#mda5f647ae6" x="51.575572" y="201.6726" style="stroke: #000000; stroke-width: 0.6"/>
      </g>
     </g>
    </g>
    <g id="ytick_21">
     <g id="line2d_40">
      <g>
       <use xlink:href="#mda5f647ae6" x="51.575572" y="190.647818" style="stroke: #000000; stroke-width: 0.6"/>
      </g>
     </g>
    </g>
    <g id="ytick_22">
     <g id="line2d_41">
      <g>
       <use xlink:href="#mda5f647ae6" x="51.575572" y="185.04967" style="stroke: #000000; stroke-width: 0.6"/>
      </g>
     </g>
    </g>
    <g id="ytick_23">
     <g id="line2d_42">
      <g>
       <use xlink:href="#mda5f647ae6" x="51.575572" y="181.077721" style="stroke: #000000; stroke-width: 0.6"/>
      </g>
     </g>
    </g>
    <g id="ytick_24">
     <g id="line2d_43">
      <g>
       <use xlink:href="#mda5f647ae6" x="51.575572" y="177.996838" style="stroke: #000000; stroke-width: 0.6"/>
      </g>
     </g>
    </g>
    <g id="ytick_25">
     <g id="line2d_44">
      <g>
       <use xlink:href="#mda5f647ae6" x="51.575572" y="175.479573" style="stroke: #000000; stroke-width: 0.6"/>
      </g>
     </g>
    </g>
    <g id="ytick_26">
     <g id="line2d_45">
      <g>
       <use xlink:href="#mda5f647ae6" x="51.575572" y="173.351256" style="stroke: #000000; stroke-width: 0.6"/>
      </g>
     </g>
    </g>
    <g id="ytick_27">
     <g id="line2d_46">
      <g>
       <use xlink:href="#mda5f647ae6" x="51.575572" y="171.507624" style="stroke: #000000; stroke-width: 0.6"/>
      </g>
     </g>
    </g>
    <g id="ytick_28">
     <g id="line2d_47">
      <g>
       <use xlink:href="#mda5f647ae6" x="51.575572" y="169.881425" style="stroke: #000000; stroke-width: 0.6"/>
      </g>
     </g>
    </g>
    <g id="ytick_29">
     <g id="line2d_48">
      <g>
       <use xlink:href="#mda5f647ae6" x="51.575572" y="158.856643" style="stroke: #000000; stroke-width: 0.6"/>
      </g>
     </g>
    </g>
    <g id="ytick_30">
     <g id="line2d_49">
      <g>
       <use xlink:href="#mda5f647ae6" x="51.575572" y="153.258495" style="stroke: #000000; stroke-width: 0.6"/>
      </g>
     </g>
    </g>
    <g id="ytick_31">
     <g id="line2d_50">
      <g>
       <use xlink:href="#mda5f647ae6" x="51.575572" y="149.286546" style="stroke: #000000; stroke-width: 0.6"/>
      </g>
     </g>
    </g>
    <g id="ytick_32">
     <g id="line2d_51">
      <g>
       <use xlink:href="#mda5f647ae6" x="51.575572" y="146.205663" style="stroke: #000000; stroke-width: 0.6"/>
      </g>
     </g>
    </g>
    <g id="ytick_33">
     <g id="line2d_52">
      <g>
       <use xlink:href="#mda5f647ae6" x="51.575572" y="143.688398" style="stroke: #000000; stroke-width: 0.6"/>
      </g>
     </g>
    </g>
    <g id="ytick_34">
     <g id="line2d_53">
      <g>
       <use xlink:href="#mda5f647ae6" x="51.575572" y="141.560081" style="stroke: #000000; stroke-width: 0.6"/>
      </g>
     </g>
    </g>
    <g id="ytick_35">
     <g id="line2d_54">
      <g>
       <use xlink:href="#mda5f647ae6" x="51.575572" y="139.716449" style="stroke: #000000; stroke-width: 0.6"/>
      </g>
     </g>
    </g>
    <g id="ytick_36">
     <g id="line2d_55">
      <g>
       <use xlink:href="#mda5f647ae6" x="51.575572" y="138.09025" style="stroke: #000000; stroke-width: 0.6"/>
      </g>
     </g>
    </g>
    <g id="ytick_37">
     <g id="line2d_56">
      <g>
       <use xlink:href="#mda5f647ae6" x="51.575572" y="127.065468" style="stroke: #000000; stroke-width: 0.6"/>
      </g>
     </g>
    </g>
    <g id="ytick_38">
     <g id="line2d_57">
      <g>
       <use xlink:href="#mda5f647ae6" x="51.575572" y="121.46732" style="stroke: #000000; stroke-width: 0.6"/>
      </g>
     </g>
    </g>
    <g id="ytick_39">
     <g id="line2d_58">
      <g>
       <use xlink:href="#mda5f647ae6" x="51.575572" y="117.495371" style="stroke: #000000; stroke-width: 0.6"/>
      </g>
     </g>
    </g>
    <g id="ytick_40">
     <g id="line2d_59">
      <g>
       <use xlink:href="#mda5f647ae6" x="51.575572" y="114.414488" style="stroke: #000000; stroke-width: 0.6"/>
      </g>
     </g>
    </g>
    <g id="ytick_41">
     <g id="line2d_60">
      <g>
       <use xlink:href="#mda5f647ae6" x="51.575572" y="111.897223" style="stroke: #000000; stroke-width: 0.6"/>
      </g>
     </g>
    </g>
    <g id="ytick_42">
     <g id="line2d_61">
      <g>
       <use xlink:href="#mda5f647ae6" x="51.575572" y="109.768906" style="stroke: #000000; stroke-width: 0.6"/>
      </g>
     </g>
    </g>
    <g id="ytick_43">
     <g id="line2d_62">
      <g>
       <use xlink:href="#mda5f647ae6" x="51.575572" y="107.925274" style="stroke: #000000; stroke-width: 0.6"/>
      </g>
     </g>
    </g>
    <g id="ytick_44">
     <g id="line2d_63">
      <g>
       <use xlink:href="#mda5f647ae6" x="51.575572" y="106.299075" style="stroke: #000000; stroke-width: 0.6"/>
      </g>
     </g>
    </g>
    <g id="ytick_45">
     <g id="line2d_64">
      <g>
       <use xlink:href="#mda5f647ae6" x="51.575572" y="95.274293" style="stroke: #000000; stroke-width: 0.6"/>
      </g>
     </g>
    </g>
    <g id="ytick_46">
     <g id="line2d_65">
      <g>
       <use xlink:href="#mda5f647ae6" x="51.575572" y="89.676145" style="stroke: #000000; stroke-width: 0.6"/>
      </g>
     </g>
    </g>
    <g id="ytick_47">
     <g id="line2d_66">
      <g>
       <use xlink:href="#mda5f647ae6" x="51.575572" y="85.704196" style="stroke: #000000; stroke-width: 0.6"/>
      </g>
     </g>
    </g>
    <g id="ytick_48">
     <g id="line2d_67">
      <g>
       <use xlink:href="#mda5f647ae6" x="51.575572" y="82.623313" style="stroke: #000000; stroke-width: 0.6"/>
      </g>
     </g>
    </g>
    <g id="ytick_49">
     <g id="line2d_68">
      <g>
       <use xlink:href="#mda5f647ae6" x="51.575572" y="80.106048" style="stroke: #000000; stroke-width: 0.6"/>
      </g>
     </g>
    </g>
    <g id="ytick_50">
     <g id="line2d_69">
      <g>
       <use xlink:href="#mda5f647ae6" x="51.575572" y="77.977731" style="stroke: #000000; stroke-width: 0.6"/>
      </g>
     </g>
    </g>
    <g id="ytick_51">
     <g id="line2d_70">
      <g>
       <use xlink:href="#mda5f647ae6" x="51.575572" y="76.134098" style="stroke: #000000; stroke-width: 0.6"/>
      </g>
     </g>
    </g>
    <g id="ytick_52">
     <g id="line2d_71">
      <g>
       <use xlink:href="#mda5f647ae6" x="51.575572" y="74.5079" style="stroke: #000000; stroke-width: 0.6"/>
      </g>
     </g>
    </g>
    <g id="ytick_53">
     <g id="line2d_72">
      <g>
       <use xlink:href="#mda5f647ae6" x="51.575572" y="63.483118" style="stroke: #000000; stroke-width: 0.6"/>
      </g>
     </g>
    </g>
    <g id="ytick_54">
     <g id="line2d_73">
      <g>
       <use xlink:href="#mda5f647ae6" x="51.575572" y="57.88497" style="stroke: #000000; stroke-width: 0.6"/>
      </g>
     </g>
    </g>
    <g id="ytick_55">
     <g id="line2d_74">
      <g>
       <use xlink:href="#mda5f647ae6" x="51.575572" y="53.913021" style="stroke: #000000; stroke-width: 0.6"/>
      </g>
     </g>
    </g>
    <g id="ytick_56">
     <g id="line2d_75">
      <g>
       <use xlink:href="#mda5f647ae6" x="51.575572" y="50.832137" style="stroke: #000000; stroke-width: 0.6"/>
      </g>
     </g>
    </g>
    <g id="ytick_57">
     <g id="line2d_76">
      <g>
       <use xlink:href="#mda5f647ae6" x="51.575572" y="48.314873" style="stroke: #000000; stroke-width: 0.6"/>
      </g>
     </g>
    </g>
    <g id="ytick_58">
     <g id="line2d_77">
      <g>
       <use xlink:href="#mda5f647ae6" x="51.575572" y="46.186555" style="stroke: #000000; stroke-width: 0.6"/>
      </g>
     </g>
    </g>
    <g id="ytick_59">
     <g id="line2d_78">
      <g>
       <use xlink:href="#mda5f647ae6" x="51.575572" y="44.342923" style="stroke: #000000; stroke-width: 0.6"/>
      </g>
     </g>
    </g>
    <g id="ytick_60">
     <g id="line2d_79">
      <g>
       <use xlink:href="#mda5f647ae6" x="51.575572" y="42.716724" style="stroke: #000000; stroke-width: 0.6"/>
      </g>
     </g>
    </g>
    <g id="ytick_61">
     <g id="line2d_80">
      <g>
       <use xlink:href="#mda5f647ae6" x="51.575572" y="31.691943" style="stroke: #000000; stroke-width: 0.6"/>
      </g>
     </g>
    </g>
    <g id="ytick_62">
     <g id="line2d_81">
      <g>
       <use xlink:href="#mda5f647ae6" x="51.575572" y="26.093795" style="stroke: #000000; stroke-width: 0.6"/>
      </g>
     </g>
    </g>
    <g id="ytick_63">
     <g id="line2d_82">
      <g>
       <use xlink:href="#mda5f647ae6" x="51.575572" y="22.121845" style="stroke: #000000; stroke-width: 0.6"/>
      </g>
     </g>
    </g>
    <g id="ytick_64">
     <g id="line2d_83">
      <g>
       <use xlink:href="#mda5f647ae6" x="51.575572" y="19.040962" style="stroke: #000000; stroke-width: 0.6"/>
      </g>
     </g>
    </g>
    <g id="ytick_65">
     <g id="line2d_84">
      <g>
       <use xlink:href="#mda5f647ae6" x="51.575572" y="16.523697" style="stroke: #000000; stroke-width: 0.6"/>
      </g>
     </g>
    </g>
    <g id="ytick_66">
     <g id="line2d_85">
      <g>
       <use xlink:href="#mda5f647ae6" x="51.575572" y="14.39538" style="stroke: #000000; stroke-width: 0.6"/>
      </g>
     </g>
    </g>
    <g id="text_15">
     <!-- Count -->
     <g transform="translate(21.088697 142.369063)rotate(-90)scale(0.12 -0.12)">
      <defs>
       <path id="TimesNewRomanPSMT-43" d="M 3853 4334 
L 3950 2894 
L 3853 2894 
Q 3659 3541 3300 3825 
Q 2941 4109 2438 4109 
Q 2016 4109 1675 3895 
Q 1334 3681 1139 3212 
Q 944 2744 944 2047 
Q 944 1472 1128 1050 
Q 1313 628 1683 403 
Q 2053 178 2528 178 
Q 2941 178 3256 354 
Q 3572 531 3950 1056 
L 4047 994 
Q 3728 428 3303 165 
Q 2878 -97 2294 -97 
Q 1241 -97 663 684 
Q 231 1266 231 2053 
Q 231 2688 515 3219 
Q 800 3750 1298 4042 
Q 1797 4334 2388 4334 
Q 2847 4334 3294 4109 
Q 3425 4041 3481 4041 
Q 3566 4041 3628 4100 
Q 3709 4184 3744 4334 
L 3853 4334 
z
" transform="scale(0.015625)"/>
       <path id="TimesNewRomanPSMT-6f" d="M 1600 2947 
Q 2250 2947 2644 2453 
Q 2978 2031 2978 1484 
Q 2978 1100 2793 706 
Q 2609 313 2286 112 
Q 1963 -88 1566 -88 
Q 919 -88 538 428 
Q 216 863 216 1403 
Q 216 1797 411 2186 
Q 606 2575 925 2761 
Q 1244 2947 1600 2947 
z
M 1503 2744 
Q 1338 2744 1170 2645 
Q 1003 2547 900 2300 
Q 797 2053 797 1666 
Q 797 1041 1045 587 
Q 1294 134 1700 134 
Q 2003 134 2200 384 
Q 2397 634 2397 1244 
Q 2397 2006 2069 2444 
Q 1847 2744 1503 2744 
z
" transform="scale(0.015625)"/>
       <path id="TimesNewRomanPSMT-75" d="M 2709 2863 
L 2709 1128 
Q 2709 631 2732 520 
Q 2756 409 2807 365 
Q 2859 322 2928 322 
Q 3025 322 3147 375 
L 3191 266 
L 2334 -88 
L 2194 -88 
L 2194 519 
Q 1825 119 1631 15 
Q 1438 -88 1222 -88 
Q 981 -88 804 51 
Q 628 191 559 409 
Q 491 628 491 1028 
L 491 2306 
Q 491 2509 447 2587 
Q 403 2666 317 2708 
Q 231 2750 6 2747 
L 6 2863 
L 1009 2863 
L 1009 947 
Q 1009 547 1148 422 
Q 1288 297 1484 297 
Q 1619 297 1789 381 
Q 1959 466 2194 703 
L 2194 2325 
Q 2194 2569 2105 2655 
Q 2016 2741 1734 2747 
L 1734 2863 
L 2709 2863 
z
" transform="scale(0.015625)"/>
      </defs>
      <use xlink:href="#TimesNewRomanPSMT-43"/>
      <use xlink:href="#TimesNewRomanPSMT-6f" x="66.699219"/>
      <use xlink:href="#TimesNewRomanPSMT-75" x="116.699219"/>
      <use xlink:href="#TimesNewRomanPSMT-6e" x="166.699219"/>
      <use xlink:href="#TimesNewRomanPSMT-74" x="216.699219"/>
     </g>
    </g>
   </g>
   <g id="line2d_86">
    <path d="M 55.088229 289 
L 55.091175 128.627958 
L 55.677109 55.627984 
L 56.263043 33.039977 
L 56.848977 32.158194 
L 57.43491 59.186485 
L 58.020844 79.944764 
L 58.606778 81.803188 
L 59.192712 111.828361 
L 59.778646 125.500769 
L 60.36458 129.26068 
L 60.950514 149.115032 
L 61.536447 177.996838 
L 62.122381 191.356011 
L 62.708315 201.6726 
L 63.294249 222.438994 
L 63.880183 207.270748 
L 64.466117 212.868896 
L 65.052051 212.868896 
L 65.637984 205.142431 
L 66.223918 200.217916 
L 66.809852 212.868896 
L 67.395786 207.270748 
L 67.98172 209.788013 
L 68.567654 212.868896 
L 69.153588 207.270748 
L 69.739521 209.788013 
L 70.911389 197.700651 
L 71.497323 205.142431 
L 72.083257 209.788013 
L 72.669191 222.438994 
L 73.255125 216.840846 
L 73.841058 209.788013 
L 75.012926 209.788013 
L 75.59886 216.840846 
L 76.184794 222.438994 
L 76.770728 212.868896 
L 77.356662 232.009091 
L 77.357712 289 
M 78.526985 289 
L 78.528529 205.142431 
L 79.114463 232.009091 
L 79.700397 209.788013 
L 80.286331 216.840846 
L 80.28766 289 
M 82.042906 289 
L 82.044132 222.438994 
L 82.630066 222.438994 
L 83.216 212.868896 
L 83.801934 216.840846 
L 83.803263 289 
M 84.972751 289 
L 84.973802 232.009091 
L 85.559736 232.009091 
L 85.560786 289 
M 103.136701 289 
L 103.137751 232.009091 
L 103.138802 289 
" clip-path="url(#p203e8be282)" style="fill: none; stroke: #000000; stroke-width: 1.5; stroke-linecap: square"/>
   </g>
   <g id="line2d_87">
    <path d="M 55.089027 289 
L 55.091175 172.215817 
L 55.677109 23.390909 
L 56.848977 75.300644 
L 57.43491 71.69994 
L 58.020844 77.59492 
L 58.606778 100.688659 
L 59.192712 118.441775 
L 59.778646 127.106951 
L 60.36458 129.729866 
L 60.950514 128.254265 
L 61.536447 133.86747 
L 62.122381 133.912738 
L 62.708315 138.213525 
L 63.294249 139.476921 
L 63.880183 142.30986 
L 64.466117 142.103169 
L 65.052051 133.576791 
L 65.637984 129.480939 
L 66.223918 134.1068 
L 66.809852 139.890121 
L 67.395786 148.160193 
L 67.98172 153.918328 
L 68.567654 162.19886 
L 69.153588 167.622237 
L 69.739521 177.996838 
L 70.325455 182.921353 
L 70.911389 190.647818 
L 71.497323 195.572334 
L 72.669191 209.788013 
L 73.255125 205.142431 
L 73.841058 205.142431 
L 74.426992 209.788013 
L 75.012926 207.270748 
L 75.59886 216.840846 
L 76.184794 212.868896 
L 76.770728 212.868896 
L 77.356662 207.270748 
L 78.528529 207.270748 
L 79.114463 205.142431 
L 79.700397 212.868896 
L 80.286331 212.868896 
L 80.872265 205.142431 
L 81.458199 212.868896 
L 82.044132 212.868896 
L 82.630066 232.009091 
L 83.216 222.438994 
L 83.801934 232.009091 
L 83.802984 289 
M 86.144619 289 
L 86.145669 232.009091 
L 86.14672 289 
M 92.589891 289 
L 92.590942 232.009091 
L 92.591992 289 
" clip-path="url(#p203e8be282)" style="fill: none; stroke: #ff0000; stroke-width: 1.5; stroke-linecap: square"/>
   </g>
   <g id="patch_3">
    <path d="M 51.575572 242.44 
L 51.575572 12.96 
" style="fill: none; stroke: #000000; stroke-width: 0.8; stroke-linejoin: miter; stroke-linecap: square"/>
   </g>
   <g id="patch_4">
    <path d="M 344.5425 242.44 
L 344.5425 12.96 
" style="fill: none; stroke: #000000; stroke-width: 0.8; stroke-linejoin: miter; stroke-linecap: square"/>
   </g>
   <g id="patch_5">
    <path d="M 51.575572 242.44 
L 344.5425 242.44 
" style="fill: none; stroke: #000000; stroke-width: 0.8; stroke-linejoin: miter; stroke-linecap: square"/>
   </g>
   <g id="patch_6">
    <path d="M 51.575572 12.96 
L 344.5425 12.96 
" style="fill: none; stroke: #000000; stroke-width: 0.8; stroke-linejoin: miter; stroke-linecap: square"/>
   </g>
   <g id="legend_1">
    <g id="patch_7">
     <path d="M 172.156875 56.53875 
L 336.1425 56.53875 
Q 338.5425 56.53875 338.5425 54.13875 
L 338.5425 21.36 
Q 338.5425 18.96 336.1425 18.96 
L 172.156875 18.96 
Q 169.756875 18.96 169.756875 21.36 
L 169.756875 54.13875 
Q 169.756875 56.53875 172.156875 56.53875 
z
" style="fill: #ffffff; opacity: 0.8; stroke: #cccccc; stroke-linejoin: miter"/>
    </g>
    <g id="line2d_88">
     <path d="M 174.556875 27.96 
L 186.556875 27.96 
L 198.556875 27.96 
" style="fill: none; stroke: #000000; stroke-width: 1.5; stroke-linecap: square"/>
    </g>
    <g id="text_16">
     <!-- RT Idle (Max = 88μs) -->
     <g transform="translate(208.156875 32.16)scale(0.12 -0.12)">
      <defs>
       <path id="TimesNewRomanPSMT-52" d="M 4325 0 
L 3194 0 
L 1759 1981 
Q 1600 1975 1500 1975 
Q 1459 1975 1412 1976 
Q 1366 1978 1316 1981 
L 1316 750 
Q 1316 350 1403 253 
Q 1522 116 1759 116 
L 1925 116 
L 1925 0 
L 109 0 
L 109 116 
L 269 116 
Q 538 116 653 291 
Q 719 388 719 750 
L 719 3488 
Q 719 3888 631 3984 
Q 509 4122 269 4122 
L 109 4122 
L 109 4238 
L 1653 4238 
Q 2328 4238 2648 4139 
Q 2969 4041 3192 3777 
Q 3416 3513 3416 3147 
Q 3416 2756 3161 2468 
Q 2906 2181 2372 2063 
L 3247 847 
Q 3547 428 3762 290 
Q 3978 153 4325 116 
L 4325 0 
z
M 1316 2178 
Q 1375 2178 1419 2176 
Q 1463 2175 1491 2175 
Q 2097 2175 2405 2437 
Q 2713 2700 2713 3106 
Q 2713 3503 2464 3751 
Q 2216 4000 1806 4000 
Q 1625 4000 1316 3941 
L 1316 2178 
z
" transform="scale(0.015625)"/>
       <path id="TimesNewRomanPSMT-54" d="M 3703 4238 
L 3750 3244 
L 3631 3244 
Q 3597 3506 3538 3619 
Q 3441 3800 3280 3886 
Q 3119 3972 2856 3972 
L 2259 3972 
L 2259 734 
Q 2259 344 2344 247 
Q 2463 116 2709 116 
L 2856 116 
L 2856 0 
L 1059 0 
L 1059 116 
L 1209 116 
Q 1478 116 1591 278 
Q 1659 378 1659 734 
L 1659 3972 
L 1150 3972 
Q 853 3972 728 3928 
Q 566 3869 450 3700 
Q 334 3531 313 3244 
L 194 3244 
L 244 4238 
L 3703 4238 
z
" transform="scale(0.015625)"/>
       <path id="TimesNewRomanPSMT-49" d="M 1975 116 
L 1975 0 
L 159 0 
L 159 116 
L 309 116 
Q 572 116 691 269 
Q 766 369 766 750 
L 766 3488 
Q 766 3809 725 3913 
Q 694 3991 597 4047 
Q 459 4122 309 4122 
L 159 4122 
L 159 4238 
L 1975 4238 
L 1975 4122 
L 1822 4122 
Q 1563 4122 1444 3969 
Q 1366 3869 1366 3488 
L 1366 750 
Q 1366 428 1406 325 
Q 1438 247 1538 191 
Q 1672 116 1822 116 
L 1975 116 
z
" transform="scale(0.015625)"/>
       <path id="TimesNewRomanPSMT-64" d="M 2222 322 
Q 2013 103 1813 7 
Q 1613 -88 1381 -88 
Q 913 -88 563 304 
Q 213 697 213 1313 
Q 213 1928 600 2439 
Q 988 2950 1597 2950 
Q 1975 2950 2222 2709 
L 2222 3238 
Q 2222 3728 2198 3840 
Q 2175 3953 2125 3993 
Q 2075 4034 2000 4034 
Q 1919 4034 1784 3984 
L 1744 4094 
L 2597 4444 
L 2738 4444 
L 2738 1134 
Q 2738 631 2761 520 
Q 2784 409 2836 365 
Q 2888 322 2956 322 
Q 3041 322 3181 375 
L 3216 266 
L 2366 -88 
L 2222 -88 
L 2222 322 
z
M 2222 541 
L 2222 2016 
Q 2203 2228 2109 2403 
Q 2016 2578 1861 2667 
Q 1706 2756 1559 2756 
Q 1284 2756 1069 2509 
Q 784 2184 784 1559 
Q 784 928 1059 592 
Q 1334 256 1672 256 
Q 1956 256 2222 541 
z
" transform="scale(0.015625)"/>
       <path id="TimesNewRomanPSMT-6c" d="M 1184 4444 
L 1184 647 
Q 1184 378 1223 290 
Q 1263 203 1344 158 
Q 1425 113 1647 113 
L 1647 0 
L 244 0 
L 244 113 
Q 441 113 512 153 
Q 584 194 625 287 
Q 666 381 666 647 
L 666 3247 
Q 666 3731 644 3842 
Q 622 3953 573 3993 
Q 525 4034 450 4034 
Q 369 4034 244 3984 
L 191 4094 
L 1044 4444 
L 1184 4444 
z
" transform="scale(0.015625)"/>
       <path id="TimesNewRomanPSMT-4d" d="M 2619 0 
L 981 3566 
L 981 734 
Q 981 344 1066 247 
Q 1181 116 1431 116 
L 1581 116 
L 1581 0 
L 106 0 
L 106 116 
L 256 116 
Q 525 116 638 278 
Q 706 378 706 734 
L 706 3503 
Q 706 3784 644 3909 
Q 600 4000 483 4061 
Q 366 4122 106 4122 
L 106 4238 
L 1306 4238 
L 2844 922 
L 4356 4238 
L 5556 4238 
L 5556 4122 
L 5409 4122 
Q 5138 4122 5025 3959 
Q 4956 3859 4956 3503 
L 4956 734 
Q 4956 344 5044 247 
Q 5159 116 5409 116 
L 5556 116 
L 5556 0 
L 3756 0 
L 3756 116 
L 3906 116 
Q 4178 116 4288 278 
Q 4356 378 4356 734 
L 4356 3566 
L 2722 0 
L 2619 0 
z
" transform="scale(0.015625)"/>
       <path id="TimesNewRomanPSMT-78" d="M 84 2863 
L 1431 2863 
L 1431 2747 
Q 1303 2747 1251 2703 
Q 1200 2659 1200 2588 
Q 1200 2513 1309 2356 
Q 1344 2306 1413 2200 
L 1616 1875 
L 1850 2200 
Q 2075 2509 2075 2591 
Q 2075 2656 2022 2701 
Q 1969 2747 1850 2747 
L 1850 2863 
L 2819 2863 
L 2819 2747 
Q 2666 2738 2553 2663 
Q 2400 2556 2134 2200 
L 1744 1678 
L 2456 653 
Q 2719 275 2831 198 
Q 2944 122 3122 113 
L 3122 0 
L 1772 0 
L 1772 113 
Q 1913 113 1991 175 
Q 2050 219 2050 291 
Q 2050 363 1850 653 
L 1431 1266 
L 972 653 
Q 759 369 759 316 
Q 759 241 829 180 
Q 900 119 1041 113 
L 1041 0 
L 106 0 
L 106 113 
Q 219 128 303 191 
Q 422 281 703 653 
L 1303 1450 
L 759 2238 
Q 528 2575 401 2661 
Q 275 2747 84 2747 
L 84 2863 
z
" transform="scale(0.015625)"/>
       <path id="TimesNewRomanPSMT-3d" d="M 116 2759 
L 3488 2759 
L 3488 2503 
L 116 2503 
L 116 2759 
z
M 116 1741 
L 3488 1741 
L 3488 1484 
L 116 1484 
L 116 1741 
z
" transform="scale(0.015625)"/>
       <path id="TimesNewRomanPSMT-38" d="M 1228 2134 
Q 725 2547 579 2797 
Q 434 3047 434 3316 
Q 434 3728 753 4026 
Q 1072 4325 1600 4325 
Q 2113 4325 2425 4047 
Q 2738 3769 2738 3413 
Q 2738 3175 2569 2928 
Q 2400 2681 1866 2347 
Q 2416 1922 2594 1678 
Q 2831 1359 2831 1006 
Q 2831 559 2490 242 
Q 2150 -75 1597 -75 
Q 994 -75 656 303 
Q 388 606 388 966 
Q 388 1247 577 1523 
Q 766 1800 1228 2134 
z
M 1719 2469 
Q 2094 2806 2194 3001 
Q 2294 3197 2294 3444 
Q 2294 3772 2109 3958 
Q 1925 4144 1606 4144 
Q 1288 4144 1088 3959 
Q 888 3775 888 3528 
Q 888 3366 970 3203 
Q 1053 3041 1206 2894 
L 1719 2469 
z
M 1375 2016 
Q 1116 1797 991 1539 
Q 866 1281 866 981 
Q 866 578 1086 336 
Q 1306 94 1647 94 
Q 1984 94 2187 284 
Q 2391 475 2391 747 
Q 2391 972 2272 1150 
Q 2050 1481 1375 2016 
z
" transform="scale(0.015625)"/>
      </defs>
      <use xlink:href="#TimesNewRomanPSMT-52"/>
      <use xlink:href="#TimesNewRomanPSMT-54" x="60.699219"/>
      <use xlink:href="#TimesNewRomanPSMT-20" x="120.033203"/>
      <use xlink:href="#TimesNewRomanPSMT-49" x="145.033203"/>
      <use xlink:href="#TimesNewRomanPSMT-64" x="178.333984"/>
      <use xlink:href="#TimesNewRomanPSMT-6c" x="228.333984"/>
      <use xlink:href="#TimesNewRomanPSMT-65" x="256.117188"/>
      <use xlink:href="#TimesNewRomanPSMT-20" x="300.501953"/>
      <use xlink:href="#TimesNewRomanPSMT-28" x="325.501953"/>
      <use xlink:href="#TimesNewRomanPSMT-4d" x="358.802734"/>
      <use xlink:href="#TimesNewRomanPSMT-61" x="447.71875"/>
      <use xlink:href="#TimesNewRomanPSMT-78" x="492.103516"/>
      <use xlink:href="#TimesNewRomanPSMT-20" x="542.103516"/>
      <use xlink:href="#TimesNewRomanPSMT-3d" x="567.103516"/>
      <use xlink:href="#TimesNewRomanPSMT-20" x="623.5"/>
      <use xlink:href="#TimesNewRomanPSMT-38" x="648.5"/>
      <use xlink:href="#TimesNewRomanPSMT-38" x="698.5"/>
      <use xlink:href="#TimesNewRomanPSMT-3bc" x="748.5"/>
      <use xlink:href="#TimesNewRomanPSMT-73" x="802.113281"/>
      <use xlink:href="#TimesNewRomanPSMT-29" x="841.029297"/>
     </g>
    </g>
    <g id="line2d_89">
     <path d="M 174.556875 44.949375 
L 186.556875 44.949375 
L 198.556875 44.949375 
" style="fill: none; stroke: #ff0000; stroke-width: 1.5; stroke-linecap: square"/>
    </g>
    <g id="text_17">
     <!-- NonRT Idle (Max = 70μs) -->
     <g transform="translate(208.156875 49.149375)scale(0.12 -0.12)">
      <defs>
       <path id="TimesNewRomanPSMT-4e" d="M -84 4238 
L 1066 4238 
L 3656 1059 
L 3656 3503 
Q 3656 3894 3569 3991 
Q 3453 4122 3203 4122 
L 3056 4122 
L 3056 4238 
L 4531 4238 
L 4531 4122 
L 4381 4122 
Q 4113 4122 4000 3959 
Q 3931 3859 3931 3503 
L 3931 -69 
L 3819 -69 
L 1025 3344 
L 1025 734 
Q 1025 344 1109 247 
Q 1228 116 1475 116 
L 1625 116 
L 1625 0 
L 150 0 
L 150 116 
L 297 116 
Q 569 116 681 278 
Q 750 378 750 734 
L 750 3681 
Q 566 3897 470 3965 
Q 375 4034 191 4094 
Q 100 4122 -84 4122 
L -84 4238 
z
" transform="scale(0.015625)"/>
       <path id="TimesNewRomanPSMT-37" d="M 644 4238 
L 2916 4238 
L 2916 4119 
L 1503 -88 
L 1153 -88 
L 2419 3728 
L 1253 3728 
Q 900 3728 750 3644 
Q 488 3500 328 3200 
L 238 3234 
L 644 4238 
z
" transform="scale(0.015625)"/>
      </defs>
      <use xlink:href="#TimesNewRomanPSMT-4e"/>
      <use xlink:href="#TimesNewRomanPSMT-6f" x="72.216797"/>
      <use xlink:href="#TimesNewRomanPSMT-6e" x="122.216797"/>
      <use xlink:href="#TimesNewRomanPSMT-52" x="172.216797"/>
      <use xlink:href="#TimesNewRomanPSMT-54" x="232.916016"/>
      <use xlink:href="#TimesNewRomanPSMT-20" x="292.25"/>
      <use xlink:href="#TimesNewRomanPSMT-49" x="317.25"/>
      <use xlink:href="#TimesNewRomanPSMT-64" x="350.550781"/>
      <use xlink:href="#TimesNewRomanPSMT-6c" x="400.550781"/>
      <use xlink:href="#TimesNewRomanPSMT-65" x="428.333984"/>
      <use xlink:href="#TimesNewRomanPSMT-20" x="472.71875"/>
      <use xlink:href="#TimesNewRomanPSMT-28" x="497.71875"/>
      <use xlink:href="#TimesNewRomanPSMT-4d" x="531.019531"/>
      <use xlink:href="#TimesNewRomanPSMT-61" x="619.935547"/>
      <use xlink:href="#TimesNewRomanPSMT-78" x="664.320312"/>
      <use xlink:href="#TimesNewRomanPSMT-20" x="714.320312"/>
      <use xlink:href="#TimesNewRomanPSMT-3d" x="739.320312"/>
      <use xlink:href="#TimesNewRomanPSMT-20" x="795.716797"/>
      <use xlink:href="#TimesNewRomanPSMT-37" x="820.716797"/>
      <use xlink:href="#TimesNewRomanPSMT-30" x="870.716797"/>
      <use xlink:href="#TimesNewRomanPSMT-3bc" x="920.716797"/>
      <use xlink:href="#TimesNewRomanPSMT-73" x="974.330078"/>
      <use xlink:href="#TimesNewRomanPSMT-29" x="1013.246094"/>
     </g>
    </g>
   </g>
  </g>
  <g id="axes_2">
   <g id="patch_8">
    <path d="M 405.095572 242.44 
L 698.0625 242.44 
L 698.0625 12.96 
L 405.095572 12.96 
z
" style="fill: #ffffff"/>
   </g>
   <g id="matplotlib.axis_3">
    <g id="xtick_7">
     <g id="line2d_90">
      <path d="M 405.095572 242.44 
L 405.095572 12.96 
" clip-path="url(#p0b10c2a9eb)" style="fill: none; stroke: #b0b0b0; stroke-width: 0.8; stroke-linecap: square"/>
     </g>
     <g id="line2d_91">
      <g>
       <use xlink:href="#m1157ca188f" x="405.095572" y="242.44" style="stroke: #000000; stroke-width: 0.8"/>
      </g>
     </g>
     <g id="text_18">
      <!-- 0 -->
      <g transform="translate(402.095572 257.7725)scale(0.12 -0.12)">
       <use xlink:href="#TimesNewRomanPSMT-30"/>
      </g>
     </g>
    </g>
    <g id="xtick_8">
     <g id="line2d_92">
      <path d="M 463.688957 242.44 
L 463.688957 12.96 
" clip-path="url(#p0b10c2a9eb)" style="fill: none; stroke: #b0b0b0; stroke-width: 0.8; stroke-linecap: square"/>
     </g>
     <g id="line2d_93">
      <g>
       <use xlink:href="#m1157ca188f" x="463.688957" y="242.44" style="stroke: #000000; stroke-width: 0.8"/>
      </g>
     </g>
     <g id="text_19">
      <!-- 100 -->
      <g transform="translate(454.688957 257.7725)scale(0.12 -0.12)">
       <use xlink:href="#TimesNewRomanPSMT-31"/>
       <use xlink:href="#TimesNewRomanPSMT-30" x="50"/>
       <use xlink:href="#TimesNewRomanPSMT-30" x="100"/>
      </g>
     </g>
    </g>
    <g id="xtick_9">
     <g id="line2d_94">
      <path d="M 522.282343 242.44 
L 522.282343 12.96 
" clip-path="url(#p0b10c2a9eb)" style="fill: none; stroke: #b0b0b0; stroke-width: 0.8; stroke-linecap: square"/>
     </g>
     <g id="line2d_95">
      <g>
       <use xlink:href="#m1157ca188f" x="522.282343" y="242.44" style="stroke: #000000; stroke-width: 0.8"/>
      </g>
     </g>
     <g id="text_20">
      <!-- 200 -->
      <g transform="translate(513.282343 257.7725)scale(0.12 -0.12)">
       <use xlink:href="#TimesNewRomanPSMT-32"/>
       <use xlink:href="#TimesNewRomanPSMT-30" x="50"/>
       <use xlink:href="#TimesNewRomanPSMT-30" x="100"/>
      </g>
     </g>
    </g>
    <g id="xtick_10">
     <g id="line2d_96">
      <path d="M 580.875729 242.44 
L 580.875729 12.96 
" clip-path="url(#p0b10c2a9eb)" style="fill: none; stroke: #b0b0b0; stroke-width: 0.8; stroke-linecap: square"/>
     </g>
     <g id="line2d_97">
      <g>
       <use xlink:href="#m1157ca188f" x="580.875729" y="242.44" style="stroke: #000000; stroke-width: 0.8"/>
      </g>
     </g>
     <g id="text_21">
      <!-- 300 -->
      <g transform="translate(571.875729 257.7725)scale(0.12 -0.12)">
       <use xlink:href="#TimesNewRomanPSMT-33"/>
       <use xlink:href="#TimesNewRomanPSMT-30" x="50"/>
       <use xlink:href="#TimesNewRomanPSMT-30" x="100"/>
      </g>
     </g>
    </g>
    <g id="xtick_11">
     <g id="line2d_98">
      <path d="M 639.469114 242.44 
L 639.469114 12.96 
" clip-path="url(#p0b10c2a9eb)" style="fill: none; stroke: #b0b0b0; stroke-width: 0.8; stroke-linecap: square"/>
     </g>
     <g id="line2d_99">
      <g>
       <use xlink:href="#m1157ca188f" x="639.469114" y="242.44" style="stroke: #000000; stroke-width: 0.8"/>
      </g>
     </g>
     <g id="text_22">
      <!-- 400 -->
      <g transform="translate(630.469114 257.7725)scale(0.12 -0.12)">
       <use xlink:href="#TimesNewRomanPSMT-34"/>
       <use xlink:href="#TimesNewRomanPSMT-30" x="50"/>
       <use xlink:href="#TimesNewRomanPSMT-30" x="100"/>
      </g>
     </g>
    </g>
    <g id="xtick_12">
     <g id="line2d_100">
      <path d="M 698.0625 242.44 
L 698.0625 12.96 
" clip-path="url(#p0b10c2a9eb)" style="fill: none; stroke: #b0b0b0; stroke-width: 0.8; stroke-linecap: square"/>
     </g>
     <g id="line2d_101">
      <g>
       <use xlink:href="#m1157ca188f" x="698.0625" y="242.44" style="stroke: #000000; stroke-width: 0.8"/>
      </g>
     </g>
     <g id="text_23">
      <!-- 500 -->
      <g transform="translate(689.0625 257.7725)scale(0.12 -0.12)">
       <use xlink:href="#TimesNewRomanPSMT-35"/>
       <use xlink:href="#TimesNewRomanPSMT-30" x="50"/>
       <use xlink:href="#TimesNewRomanPSMT-30" x="100"/>
      </g>
     </g>
    </g>
    <g id="text_24">
     <!-- Latency (μs) -->
     <g transform="translate(521.209661 272.671875)scale(0.12 -0.12)">
      <use xlink:href="#TimesNewRomanPSMT-4c"/>
      <use xlink:href="#TimesNewRomanPSMT-61" x="61.083984"/>
      <use xlink:href="#TimesNewRomanPSMT-74" x="105.46875"/>
      <use xlink:href="#TimesNewRomanPSMT-65" x="133.251953"/>
      <use xlink:href="#TimesNewRomanPSMT-6e" x="177.636719"/>
      <use xlink:href="#TimesNewRomanPSMT-63" x="227.636719"/>
      <use xlink:href="#TimesNewRomanPSMT-79" x="272.021484"/>
      <use xlink:href="#TimesNewRomanPSMT-20" x="322.021484"/>
      <use xlink:href="#TimesNewRomanPSMT-28" x="347.021484"/>
      <use xlink:href="#TimesNewRomanPSMT-3bc" x="380.322266"/>
      <use xlink:href="#TimesNewRomanPSMT-73" x="433.935547"/>
      <use xlink:href="#TimesNewRomanPSMT-29" x="472.851562"/>
     </g>
    </g>
   </g>
   <g id="matplotlib.axis_4">
    <g id="ytick_67">
     <g id="line2d_102">
      <path d="M 405.095572 232.009091 
L 698.0625 232.009091 
" clip-path="url(#p0b10c2a9eb)" style="fill: none; stroke: #b0b0b0; stroke-width: 0.8; stroke-linecap: square"/>
     </g>
     <g id="line2d_103">
      <g>
       <use xlink:href="#m494fd165c9" x="405.095572" y="232.009091" style="stroke: #000000; stroke-width: 0.8"/>
      </g>
     </g>
     <g id="text_25">
      <!-- $\mathdefault{10^{0}}$ -->
      <g transform="translate(381.175572 237.325653)scale(0.12 -0.12)">
       <use xlink:href="#TimesNewRomanPSMT-31" transform="translate(0 0.582813)"/>
       <use xlink:href="#TimesNewRomanPSMT-30" transform="translate(50 0.582813)"/>
       <use xlink:href="#TimesNewRomanPSMT-30" transform="translate(101.502813 60.695312)scale(0.7)"/>
      </g>
     </g>
    </g>
    <g id="ytick_68">
     <g id="line2d_104">
      <path d="M 405.095572 198.427915 
L 698.0625 198.427915 
" clip-path="url(#p0b10c2a9eb)" style="fill: none; stroke: #b0b0b0; stroke-width: 0.8; stroke-linecap: square"/>
     </g>
     <g id="line2d_105">
      <g>
       <use xlink:href="#m494fd165c9" x="405.095572" y="198.427915" style="stroke: #000000; stroke-width: 0.8"/>
      </g>
     </g>
     <g id="text_26">
      <!-- $\mathdefault{10^{1}}$ -->
      <g transform="translate(381.175572 203.744478)scale(0.12 -0.12)">
       <use xlink:href="#TimesNewRomanPSMT-31" transform="translate(0 0.582813)"/>
       <use xlink:href="#TimesNewRomanPSMT-30" transform="translate(50 0.582813)"/>
       <use xlink:href="#TimesNewRomanPSMT-31" transform="translate(101.502813 60.695312)scale(0.7)"/>
      </g>
     </g>
    </g>
    <g id="ytick_69">
     <g id="line2d_106">
      <path d="M 405.095572 164.846739 
L 698.0625 164.846739 
" clip-path="url(#p0b10c2a9eb)" style="fill: none; stroke: #b0b0b0; stroke-width: 0.8; stroke-linecap: square"/>
     </g>
     <g id="line2d_107">
      <g>
       <use xlink:href="#m494fd165c9" x="405.095572" y="164.846739" style="stroke: #000000; stroke-width: 0.8"/>
      </g>
     </g>
     <g id="text_27">
      <!-- $\mathdefault{10^{2}}$ -->
      <g transform="translate(381.175572 170.163302)scale(0.12 -0.12)">
       <use xlink:href="#TimesNewRomanPSMT-31" transform="translate(0 0.582813)"/>
       <use xlink:href="#TimesNewRomanPSMT-30" transform="translate(50 0.582813)"/>
       <use xlink:href="#TimesNewRomanPSMT-32" transform="translate(101.502813 60.695312)scale(0.7)"/>
      </g>
     </g>
    </g>
    <g id="ytick_70">
     <g id="line2d_108">
      <path d="M 405.095572 131.265564 
L 698.0625 131.265564 
" clip-path="url(#p0b10c2a9eb)" style="fill: none; stroke: #b0b0b0; stroke-width: 0.8; stroke-linecap: square"/>
     </g>
     <g id="line2d_109">
      <g>
       <use xlink:href="#m494fd165c9" x="405.095572" y="131.265564" style="stroke: #000000; stroke-width: 0.8"/>
      </g>
     </g>
     <g id="text_28">
      <!-- $\mathdefault{10^{3}}$ -->
      <g transform="translate(381.175572 136.582126)scale(0.12 -0.12)">
       <use xlink:href="#TimesNewRomanPSMT-31" transform="translate(0 0.582813)"/>
       <use xlink:href="#TimesNewRomanPSMT-30" transform="translate(50 0.582813)"/>
       <use xlink:href="#TimesNewRomanPSMT-33" transform="translate(101.502813 60.695312)scale(0.7)"/>
      </g>
     </g>
    </g>
    <g id="ytick_71">
     <g id="line2d_110">
      <path d="M 405.095572 97.684388 
L 698.0625 97.684388 
" clip-path="url(#p0b10c2a9eb)" style="fill: none; stroke: #b0b0b0; stroke-width: 0.8; stroke-linecap: square"/>
     </g>
     <g id="line2d_111">
      <g>
       <use xlink:href="#m494fd165c9" x="405.095572" y="97.684388" style="stroke: #000000; stroke-width: 0.8"/>
      </g>
     </g>
     <g id="text_29">
      <!-- $\mathdefault{10^{4}}$ -->
      <g transform="translate(381.175572 103.00095)scale(0.12 -0.12)">
       <use xlink:href="#TimesNewRomanPSMT-31" transform="translate(0 0.582813)"/>
       <use xlink:href="#TimesNewRomanPSMT-30" transform="translate(50 0.582813)"/>
       <use xlink:href="#TimesNewRomanPSMT-34" transform="translate(101.502813 60.695312)scale(0.7)"/>
      </g>
     </g>
    </g>
    <g id="ytick_72">
     <g id="line2d_112">
      <path d="M 405.095572 64.103212 
L 698.0625 64.103212 
" clip-path="url(#p0b10c2a9eb)" style="fill: none; stroke: #b0b0b0; stroke-width: 0.8; stroke-linecap: square"/>
     </g>
     <g id="line2d_113">
      <g>
       <use xlink:href="#m494fd165c9" x="405.095572" y="64.103212" style="stroke: #000000; stroke-width: 0.8"/>
      </g>
     </g>
     <g id="text_30">
      <!-- $\mathdefault{10^{5}}$ -->
      <g transform="translate(381.175572 69.359774)scale(0.12 -0.12)">
       <use xlink:href="#TimesNewRomanPSMT-31" transform="translate(0 0.534375)"/>
       <use xlink:href="#TimesNewRomanPSMT-30" transform="translate(50 0.534375)"/>
       <use xlink:href="#TimesNewRomanPSMT-35" transform="translate(101.502813 60.646875)scale(0.7)"/>
      </g>
     </g>
    </g>
    <g id="ytick_73">
     <g id="line2d_114">
      <path d="M 405.095572 30.522036 
L 698.0625 30.522036 
" clip-path="url(#p0b10c2a9eb)" style="fill: none; stroke: #b0b0b0; stroke-width: 0.8; stroke-linecap: square"/>
     </g>
     <g id="line2d_115">
      <g>
       <use xlink:href="#m494fd165c9" x="405.095572" y="30.522036" style="stroke: #000000; stroke-width: 0.8"/>
      </g>
     </g>
     <g id="text_31">
      <!-- $\mathdefault{10^{6}}$ -->
      <g transform="translate(381.175572 35.838599)scale(0.12 -0.12)">
       <use xlink:href="#TimesNewRomanPSMT-31" transform="translate(0 0.582813)"/>
       <use xlink:href="#TimesNewRomanPSMT-30" transform="translate(50 0.582813)"/>
       <use xlink:href="#TimesNewRomanPSMT-36" transform="translate(101.502813 60.695312)scale(0.7)"/>
      </g>
     </g>
    </g>
    <g id="ytick_74">
     <g id="line2d_116">
      <g>
       <use xlink:href="#mda5f647ae6" x="405.095572" y="242.118032" style="stroke: #000000; stroke-width: 0.6"/>
      </g>
     </g>
    </g>
    <g id="ytick_75">
     <g id="line2d_117">
      <g>
       <use xlink:href="#mda5f647ae6" x="405.095572" y="239.459033" style="stroke: #000000; stroke-width: 0.6"/>
      </g>
     </g>
    </g>
    <g id="ytick_76">
     <g id="line2d_118">
      <g>
       <use xlink:href="#mda5f647ae6" x="405.095572" y="237.210881" style="stroke: #000000; stroke-width: 0.6"/>
      </g>
     </g>
    </g>
    <g id="ytick_77">
     <g id="line2d_119">
      <g>
       <use xlink:href="#mda5f647ae6" x="405.095572" y="235.263443" style="stroke: #000000; stroke-width: 0.6"/>
      </g>
     </g>
    </g>
    <g id="ytick_78">
     <g id="line2d_120">
      <g>
       <use xlink:href="#mda5f647ae6" x="405.095572" y="233.545681" style="stroke: #000000; stroke-width: 0.6"/>
      </g>
     </g>
    </g>
    <g id="ytick_79">
     <g id="line2d_121">
      <g>
       <use xlink:href="#mda5f647ae6" x="405.095572" y="221.90015" style="stroke: #000000; stroke-width: 0.6"/>
      </g>
     </g>
    </g>
    <g id="ytick_80">
     <g id="line2d_122">
      <g>
       <use xlink:href="#mda5f647ae6" x="405.095572" y="215.986798" style="stroke: #000000; stroke-width: 0.6"/>
      </g>
     </g>
    </g>
    <g id="ytick_81">
     <g id="line2d_123">
      <g>
       <use xlink:href="#mda5f647ae6" x="405.095572" y="211.791209" style="stroke: #000000; stroke-width: 0.6"/>
      </g>
     </g>
    </g>
    <g id="ytick_82">
     <g id="line2d_124">
      <g>
       <use xlink:href="#mda5f647ae6" x="405.095572" y="208.536856" style="stroke: #000000; stroke-width: 0.6"/>
      </g>
     </g>
    </g>
    <g id="ytick_83">
     <g id="line2d_125">
      <g>
       <use xlink:href="#mda5f647ae6" x="405.095572" y="205.877857" style="stroke: #000000; stroke-width: 0.6"/>
      </g>
     </g>
    </g>
    <g id="ytick_84">
     <g id="line2d_126">
      <g>
       <use xlink:href="#mda5f647ae6" x="405.095572" y="203.629705" style="stroke: #000000; stroke-width: 0.6"/>
      </g>
     </g>
    </g>
    <g id="ytick_85">
     <g id="line2d_127">
      <g>
       <use xlink:href="#mda5f647ae6" x="405.095572" y="201.682267" style="stroke: #000000; stroke-width: 0.6"/>
      </g>
     </g>
    </g>
    <g id="ytick_86">
     <g id="line2d_128">
      <g>
       <use xlink:href="#mda5f647ae6" x="405.095572" y="199.964505" style="stroke: #000000; stroke-width: 0.6"/>
      </g>
     </g>
    </g>
    <g id="ytick_87">
     <g id="line2d_129">
      <g>
       <use xlink:href="#mda5f647ae6" x="405.095572" y="188.318974" style="stroke: #000000; stroke-width: 0.6"/>
      </g>
     </g>
    </g>
    <g id="ytick_88">
     <g id="line2d_130">
      <g>
       <use xlink:href="#mda5f647ae6" x="405.095572" y="182.405622" style="stroke: #000000; stroke-width: 0.6"/>
      </g>
     </g>
    </g>
    <g id="ytick_89">
     <g id="line2d_131">
      <g>
       <use xlink:href="#mda5f647ae6" x="405.095572" y="178.210033" style="stroke: #000000; stroke-width: 0.6"/>
      </g>
     </g>
    </g>
    <g id="ytick_90">
     <g id="line2d_132">
      <g>
       <use xlink:href="#mda5f647ae6" x="405.095572" y="174.955681" style="stroke: #000000; stroke-width: 0.6"/>
      </g>
     </g>
    </g>
    <g id="ytick_91">
     <g id="line2d_133">
      <g>
       <use xlink:href="#mda5f647ae6" x="405.095572" y="172.296681" style="stroke: #000000; stroke-width: 0.6"/>
      </g>
     </g>
    </g>
    <g id="ytick_92">
     <g id="line2d_134">
      <g>
       <use xlink:href="#mda5f647ae6" x="405.095572" y="170.048529" style="stroke: #000000; stroke-width: 0.6"/>
      </g>
     </g>
    </g>
    <g id="ytick_93">
     <g id="line2d_135">
      <g>
       <use xlink:href="#mda5f647ae6" x="405.095572" y="168.101092" style="stroke: #000000; stroke-width: 0.6"/>
      </g>
     </g>
    </g>
    <g id="ytick_94">
     <g id="line2d_136">
      <g>
       <use xlink:href="#mda5f647ae6" x="405.095572" y="166.38333" style="stroke: #000000; stroke-width: 0.6"/>
      </g>
     </g>
    </g>
    <g id="ytick_95">
     <g id="line2d_137">
      <g>
       <use xlink:href="#mda5f647ae6" x="405.095572" y="154.737798" style="stroke: #000000; stroke-width: 0.6"/>
      </g>
     </g>
    </g>
    <g id="ytick_96">
     <g id="line2d_138">
      <g>
       <use xlink:href="#mda5f647ae6" x="405.095572" y="148.824447" style="stroke: #000000; stroke-width: 0.6"/>
      </g>
     </g>
    </g>
    <g id="ytick_97">
     <g id="line2d_139">
      <g>
       <use xlink:href="#mda5f647ae6" x="405.095572" y="144.628857" style="stroke: #000000; stroke-width: 0.6"/>
      </g>
     </g>
    </g>
    <g id="ytick_98">
     <g id="line2d_140">
      <g>
       <use xlink:href="#mda5f647ae6" x="405.095572" y="141.374505" style="stroke: #000000; stroke-width: 0.6"/>
      </g>
     </g>
    </g>
    <g id="ytick_99">
     <g id="line2d_141">
      <g>
       <use xlink:href="#mda5f647ae6" x="405.095572" y="138.715505" style="stroke: #000000; stroke-width: 0.6"/>
      </g>
     </g>
    </g>
    <g id="ytick_100">
     <g id="line2d_142">
      <g>
       <use xlink:href="#mda5f647ae6" x="405.095572" y="136.467353" style="stroke: #000000; stroke-width: 0.6"/>
      </g>
     </g>
    </g>
    <g id="ytick_101">
     <g id="line2d_143">
      <g>
       <use xlink:href="#mda5f647ae6" x="405.095572" y="134.519916" style="stroke: #000000; stroke-width: 0.6"/>
      </g>
     </g>
    </g>
    <g id="ytick_102">
     <g id="line2d_144">
      <g>
       <use xlink:href="#mda5f647ae6" x="405.095572" y="132.802154" style="stroke: #000000; stroke-width: 0.6"/>
      </g>
     </g>
    </g>
    <g id="ytick_103">
     <g id="line2d_145">
      <g>
       <use xlink:href="#mda5f647ae6" x="405.095572" y="121.156622" style="stroke: #000000; stroke-width: 0.6"/>
      </g>
     </g>
    </g>
    <g id="ytick_104">
     <g id="line2d_146">
      <g>
       <use xlink:href="#mda5f647ae6" x="405.095572" y="115.243271" style="stroke: #000000; stroke-width: 0.6"/>
      </g>
     </g>
    </g>
    <g id="ytick_105">
     <g id="line2d_147">
      <g>
       <use xlink:href="#mda5f647ae6" x="405.095572" y="111.047681" style="stroke: #000000; stroke-width: 0.6"/>
      </g>
     </g>
    </g>
    <g id="ytick_106">
     <g id="line2d_148">
      <g>
       <use xlink:href="#mda5f647ae6" x="405.095572" y="107.793329" style="stroke: #000000; stroke-width: 0.6"/>
      </g>
     </g>
    </g>
    <g id="ytick_107">
     <g id="line2d_149">
      <g>
       <use xlink:href="#mda5f647ae6" x="405.095572" y="105.13433" style="stroke: #000000; stroke-width: 0.6"/>
      </g>
     </g>
    </g>
    <g id="ytick_108">
     <g id="line2d_150">
      <g>
       <use xlink:href="#mda5f647ae6" x="405.095572" y="102.886178" style="stroke: #000000; stroke-width: 0.6"/>
      </g>
     </g>
    </g>
    <g id="ytick_109">
     <g id="line2d_151">
      <g>
       <use xlink:href="#mda5f647ae6" x="405.095572" y="100.93874" style="stroke: #000000; stroke-width: 0.6"/>
      </g>
     </g>
    </g>
    <g id="ytick_110">
     <g id="line2d_152">
      <g>
       <use xlink:href="#mda5f647ae6" x="405.095572" y="99.220978" style="stroke: #000000; stroke-width: 0.6"/>
      </g>
     </g>
    </g>
    <g id="ytick_111">
     <g id="line2d_153">
      <g>
       <use xlink:href="#mda5f647ae6" x="405.095572" y="87.575447" style="stroke: #000000; stroke-width: 0.6"/>
      </g>
     </g>
    </g>
    <g id="ytick_112">
     <g id="line2d_154">
      <g>
       <use xlink:href="#mda5f647ae6" x="405.095572" y="81.662095" style="stroke: #000000; stroke-width: 0.6"/>
      </g>
     </g>
    </g>
    <g id="ytick_113">
     <g id="line2d_155">
      <g>
       <use xlink:href="#mda5f647ae6" x="405.095572" y="77.466505" style="stroke: #000000; stroke-width: 0.6"/>
      </g>
     </g>
    </g>
    <g id="ytick_114">
     <g id="line2d_156">
      <g>
       <use xlink:href="#mda5f647ae6" x="405.095572" y="74.212153" style="stroke: #000000; stroke-width: 0.6"/>
      </g>
     </g>
    </g>
    <g id="ytick_115">
     <g id="line2d_157">
      <g>
       <use xlink:href="#mda5f647ae6" x="405.095572" y="71.553154" style="stroke: #000000; stroke-width: 0.6"/>
      </g>
     </g>
    </g>
    <g id="ytick_116">
     <g id="line2d_158">
      <g>
       <use xlink:href="#mda5f647ae6" x="405.095572" y="69.305002" style="stroke: #000000; stroke-width: 0.6"/>
      </g>
     </g>
    </g>
    <g id="ytick_117">
     <g id="line2d_159">
      <g>
       <use xlink:href="#mda5f647ae6" x="405.095572" y="67.357564" style="stroke: #000000; stroke-width: 0.6"/>
      </g>
     </g>
    </g>
    <g id="ytick_118">
     <g id="line2d_160">
      <g>
       <use xlink:href="#mda5f647ae6" x="405.095572" y="65.639802" style="stroke: #000000; stroke-width: 0.6"/>
      </g>
     </g>
    </g>
    <g id="ytick_119">
     <g id="line2d_161">
      <g>
       <use xlink:href="#mda5f647ae6" x="405.095572" y="53.994271" style="stroke: #000000; stroke-width: 0.6"/>
      </g>
     </g>
    </g>
    <g id="ytick_120">
     <g id="line2d_162">
      <g>
       <use xlink:href="#mda5f647ae6" x="405.095572" y="48.080919" style="stroke: #000000; stroke-width: 0.6"/>
      </g>
     </g>
    </g>
    <g id="ytick_121">
     <g id="line2d_163">
      <g>
       <use xlink:href="#mda5f647ae6" x="405.095572" y="43.88533" style="stroke: #000000; stroke-width: 0.6"/>
      </g>
     </g>
    </g>
    <g id="ytick_122">
     <g id="line2d_164">
      <g>
       <use xlink:href="#mda5f647ae6" x="405.095572" y="40.630977" style="stroke: #000000; stroke-width: 0.6"/>
      </g>
     </g>
    </g>
    <g id="ytick_123">
     <g id="line2d_165">
      <g>
       <use xlink:href="#mda5f647ae6" x="405.095572" y="37.971978" style="stroke: #000000; stroke-width: 0.6"/>
      </g>
     </g>
    </g>
    <g id="ytick_124">
     <g id="line2d_166">
      <g>
       <use xlink:href="#mda5f647ae6" x="405.095572" y="35.723826" style="stroke: #000000; stroke-width: 0.6"/>
      </g>
     </g>
    </g>
    <g id="ytick_125">
     <g id="line2d_167">
      <g>
       <use xlink:href="#mda5f647ae6" x="405.095572" y="33.776388" style="stroke: #000000; stroke-width: 0.6"/>
      </g>
     </g>
    </g>
    <g id="ytick_126">
     <g id="line2d_168">
      <g>
       <use xlink:href="#mda5f647ae6" x="405.095572" y="32.058626" style="stroke: #000000; stroke-width: 0.6"/>
      </g>
     </g>
    </g>
    <g id="ytick_127">
     <g id="line2d_169">
      <g>
       <use xlink:href="#mda5f647ae6" x="405.095572" y="20.413095" style="stroke: #000000; stroke-width: 0.6"/>
      </g>
     </g>
    </g>
    <g id="ytick_128">
     <g id="line2d_170">
      <g>
       <use xlink:href="#mda5f647ae6" x="405.095572" y="14.499743" style="stroke: #000000; stroke-width: 0.6"/>
      </g>
     </g>
    </g>
    <g id="text_32">
     <!-- Count -->
     <g transform="translate(374.608697 142.369063)rotate(-90)scale(0.12 -0.12)">
      <use xlink:href="#TimesNewRomanPSMT-43"/>
      <use xlink:href="#TimesNewRomanPSMT-6f" x="66.699219"/>
      <use xlink:href="#TimesNewRomanPSMT-75" x="116.699219"/>
      <use xlink:href="#TimesNewRomanPSMT-6e" x="166.699219"/>
      <use xlink:href="#TimesNewRomanPSMT-74" x="216.699219"/>
     </g>
    </g>
   </g>
   <g id="line2d_171">
    <path d="M 408.609726 289 
L 408.611175 205.877857 
L 409.197109 126.368833 
L 409.783043 23.964467 
L 410.368977 25.950154 
L 410.95491 42.664641 
L 411.540844 48.45295 
L 412.126778 53.013459 
L 413.298646 64.683836 
L 414.470514 73.762386 
L 416.228315 84.685546 
L 417.400183 90.233279 
L 418.572051 94.801069 
L 419.157984 96.781027 
L 419.743918 98.267592 
L 420.915786 101.841138 
L 421.50172 103.525 
L 422.087654 107.74092 
L 422.673588 109.867994 
L 426.775125 119.654345 
L 427.361058 121.698901 
L 427.946992 123.145789 
L 428.532926 125.006327 
L 429.11886 125.7764 
L 429.704794 127.040835 
L 430.290728 129.431593 
L 430.876662 129.100988 
L 431.462595 128.582278 
L 432.048529 127.791201 
L 432.634463 126.515514 
L 433.220397 124.429216 
L 433.806331 123.062451 
L 434.978199 123.356241 
L 435.564132 124.256836 
L 436.150066 125.52828 
L 436.736 127.450435 
L 437.321934 128.765421 
L 437.907868 130.948191 
L 439.665669 142.339096 
L 441.423471 155.107036 
L 442.009405 157.107994 
L 442.595339 164.27474 
L 443.181273 166.062787 
L 443.767206 169.436518 
L 444.35314 165.749138 
L 444.939074 172.791105 
L 446.110942 178.9581 
L 446.696876 180.15747 
L 447.28281 181.015607 
L 447.868743 184.492622 
L 448.454677 181.015607 
L 449.040611 188.318974 
L 449.626545 186.280669 
L 450.212479 192.514564 
L 450.798413 199.964505 
L 451.384347 185.659975 
L 452.556214 203.629705 
L 453.142148 197.0379 
L 453.728082 193.520764 
L 454.314016 194.601563 
L 454.89995 203.629705 
L 455.485884 199.964505 
L 456.071817 203.629705 
L 456.657751 215.986798 
L 457.243685 201.682267 
L 457.829619 208.536856 
L 458.415553 208.536856 
L 459.001487 215.986798 
L 459.587421 221.90015 
L 460.759288 221.90015 
L 461.345222 215.986798 
L 462.51709 215.986798 
L 463.103024 221.90015 
L 463.688957 232.009091 
L 464.274891 221.90015 
L 464.860825 215.986798 
L 464.862099 289 
M 466.03142 289 
L 466.032693 215.986798 
L 466.618627 232.009091 
L 467.204561 221.90015 
L 467.790494 232.009091 
L 467.791489 289 
M 469.547302 289 
L 469.548296 232.009091 
L 470.13423 232.009091 
L 470.135224 289 
M 471.304927 289 
L 471.306098 221.90015 
L 471.892031 232.009091 
L 473.649833 232.009091 
L 473.650827 289 
M 478.33631 289 
L 478.337304 232.009091 
L 478.923238 221.90015 
L 478.924408 289 
M 481.851913 289 
L 481.852907 232.009091 
L 481.853901 289 
M 483.609714 289 
L 483.610709 232.009091 
L 483.611703 289 
M 484.781582 289 
L 484.782576 232.009091 
L 484.783571 289 
M 487.125317 289 
L 487.126312 232.009091 
L 487.127306 289 
M 489.469053 289 
L 489.470047 232.009091 
L 489.471042 289 
M 490.640642 289 
L 490.641915 215.986798 
L 491.227849 232.009091 
L 491.228843 289 
M 494.156348 289 
L 494.157518 221.90015 
L 494.158688 289 
M 495.328215 289 
L 495.329386 221.90015 
L 495.330556 289 
M 497.086193 289 
L 497.087187 232.009091 
L 497.088182 289 
M 501.773664 289 
L 501.774658 232.009091 
L 502.360592 221.90015 
L 502.361762 289 
M 503.531465 289 
L 503.53246 232.009091 
L 504.118394 232.009091 
L 504.119388 289 
M 509.390804 289 
L 509.391798 232.009091 
L 509.392793 289 
M 516.42201 289 
L 516.423005 232.009091 
L 517.008938 221.90015 
L 517.010109 289 
M 518.765746 289 
L 518.76674 232.009091 
L 518.767734 289 
M 521.109481 289 
L 521.110475 232.009091 
L 521.11147 289 
M 522.867283 289 
L 522.868277 232.009091 
L 522.869271 289 
M 525.796952 289 
L 525.797946 232.009091 
L 525.798941 289 
M 528.726621 289 
L 528.727616 232.009091 
L 528.72861 289 
M 529.898489 289 
L 529.899483 232.009091 
L 529.900478 289 
M 544.546835 289 
L 544.54783 232.009091 
L 544.548824 289 
M 554.507711 289 
L 554.508705 232.009091 
L 554.5097 289 
" clip-path="url(#p0b10c2a9eb)" style="fill: none; stroke: #000000; stroke-width: 1.5; stroke-linecap: square"/>
   </g>
   <g id="line2d_172">
    <path d="M 408.609447 289 
L 408.611175 189.855564 
L 409.197109 64.054291 
L 409.783043 23.390909 
L 410.368977 36.255794 
L 410.95491 46.641358 
L 413.298646 57.300397 
L 416.228315 74.459841 
L 416.814249 77.411554 
L 417.400183 79.201733 
L 417.986117 80.18308 
L 418.572051 82.405046 
L 419.157984 83.294063 
L 419.743918 83.73732 
L 420.329852 84.591942 
L 420.915786 85.956543 
L 421.50172 86.913974 
L 422.087654 90.146913 
L 422.673588 89.781002 
L 423.259521 90.349236 
L 423.845455 92.11437 
L 424.431389 91.861739 
L 425.017323 92.680677 
L 426.189191 97.769222 
L 427.946992 105.217208 
L 429.704794 111.795749 
L 431.462595 117.335881 
L 432.048529 118.866861 
L 432.634463 121.222399 
L 433.806331 124.05975 
L 434.392265 126.813376 
L 434.978199 126.942918 
L 435.564132 128.851681 
L 436.150066 129.717311 
L 436.736 130.143155 
L 437.321934 131.770049 
L 437.907868 132.561089 
L 438.493802 132.497472 
L 439.079736 133.739071 
L 439.665669 134.284829 
L 440.837537 137.957718 
L 441.423471 138.260836 
L 442.009405 139.695686 
L 442.595339 139.98449 
L 443.181273 142.122572 
L 443.767206 141.114325 
L 444.35314 141.403702 
L 444.939074 143.172701 
L 445.525008 143.848012 
L 446.110942 145.687237 
L 446.696876 146.044417 
L 447.28281 147.258717 
L 447.868743 147.215117 
L 448.454677 148.727542 
L 449.040611 147.567621 
L 449.626545 148.631277 
L 450.212479 150.855461 
L 450.798413 149.02021 
L 451.384347 150.307121 
L 451.97028 152.018158 
L 452.556214 152.699493 
L 453.142148 151.194642 
L 453.728082 152.018158 
L 454.314016 150.146561 
L 455.485884 151.309478 
L 456.071817 153.548026 
L 456.657751 150.967647 
L 457.243685 152.636222 
L 457.829619 153.414226 
L 458.415553 152.763041 
L 459.001487 153.819366 
L 459.587421 155.333151 
L 460.173354 153.819366 
L 460.759288 156.685236 
L 461.345222 155.182019 
L 461.931156 156.437341 
L 462.51709 157.280589 
L 463.103024 157.543373 
L 463.688957 157.194036 
L 464.274891 157.367658 
L 464.860825 155.485866 
L 465.446759 156.852871 
L 466.032693 156.274388 
L 466.618627 158.836483 
L 467.204561 156.602135 
L 467.790494 156.602135 
L 468.376428 156.355637 
L 468.962362 157.367658 
L 469.548296 158.836483 
L 470.13423 157.901283 
L 470.720164 158.549573 
L 471.306098 158.083587 
L 471.892031 158.933388 
L 472.477965 158.549573 
L 473.063899 159.939588 
L 473.649833 160.687656 
L 474.235767 162.556978 
L 474.821701 158.361388 
L 475.407635 158.455177 
L 476.579502 157.107994 
L 477.165436 160.687656 
L 477.75137 156.519505 
L 478.337304 158.933388 
L 478.923238 159.129151 
L 479.509172 159.939588 
L 480.095105 159.528741 
L 480.681039 160.255502 
L 481.266973 157.194036 
L 481.852907 160.362346 
L 482.438841 157.543373 
L 483.024775 158.268199 
L 483.610709 160.149435 
L 484.196642 160.362346 
L 484.782576 159.327577 
L 485.36851 161.82762 
L 485.954444 158.644584 
L 486.540378 159.427812 
L 487.126312 157.99215 
L 487.712246 160.149435 
L 488.298179 159.528741 
L 488.884113 160.908631 
L 489.470047 161.133007 
L 490.055981 159.129151 
L 490.641915 160.255502 
L 491.227849 162.066709 
L 491.813783 161.476178 
L 492.399716 159.939588 
L 492.98565 160.149435 
L 493.571584 161.476178 
L 494.157518 162.066709 
L 495.329386 161.246502 
L 495.91532 158.836483 
L 497.087187 160.578411 
L 497.673121 162.309784 
L 498.259055 161.82762 
L 498.844989 162.18774 
L 499.430923 158.740218 
L 500.016857 162.18774 
L 500.60279 161.946675 
L 501.188724 162.309784 
L 501.774658 162.309784 
L 502.360592 159.327577 
L 502.946526 159.939588 
L 503.53246 161.133007 
L 504.118394 160.908631 
L 504.704327 162.066709 
L 505.290261 161.82762 
L 505.876195 163.996939 
L 506.462129 164.701623 
L 507.048063 162.309784 
L 507.633997 162.066709 
L 508.219931 160.469978 
L 508.805864 162.556978 
L 509.391798 160.797725 
L 509.977732 162.066709 
L 510.563666 161.476178 
L 511.1496 159.630373 
L 511.735534 160.687656 
L 512.321468 156.19359 
L 512.907401 155.409308 
L 513.493335 156.852871 
L 514.079269 156.355637 
L 514.665203 155.333151 
L 515.251137 154.592681 
L 515.837071 155.182019 
L 516.423005 153.480972 
L 517.008938 152.510496 
L 517.594872 152.078799 
L 518.180806 153.020036 
L 518.76674 154.377678 
L 519.352674 151.600588 
L 519.938608 153.615389 
L 520.524542 154.026237 
L 521.110475 157.022456 
L 521.696409 158.361388 
L 522.282343 160.687656 
L 522.868277 159.030941 
L 524.040145 158.933388 
L 524.626079 159.630373 
L 525.212012 162.066709 
L 525.797946 159.129151 
L 526.38388 157.543373 
L 527.555748 160.469978 
L 528.141682 159.427812 
L 528.727616 158.740218 
L 529.313549 159.835786 
L 529.899483 160.469978 
L 530.485417 159.528741 
L 531.657285 163.72433 
L 532.829153 161.82762 
L 533.415086 158.644584 
L 534.00102 159.228026 
L 534.586954 160.908631 
L 535.172888 158.549573 
L 535.758822 160.362346 
L 536.344756 158.740218 
L 536.93069 161.476178 
L 537.516623 157.455251 
L 538.102557 157.022456 
L 538.688491 155.874799 
L 539.274425 156.19359 
L 540.446293 151.251947 
L 541.032227 154.165799 
L 541.61816 153.887997 
L 542.204094 152.763041 
L 542.790028 150.578714 
L 543.375962 154.026237 
L 543.961896 152.448037 
L 544.54783 152.826866 
L 545.133764 155.257389 
L 545.719697 156.274388 
L 546.305631 153.887997 
L 546.891565 153.819366 
L 547.477499 154.377678 
L 548.063433 155.717979 
L 548.649367 156.437341 
L 549.235301 158.083587 
L 549.821234 160.687656 
L 550.407168 159.129151 
L 550.993102 160.362346 
L 552.16497 163.72433 
L 552.750904 162.432857 
L 553.336838 162.556978 
L 553.922771 163.064303 
L 554.508705 163.996939 
L 555.094639 163.72433 
L 555.680573 162.556978 
L 556.266507 162.432857 
L 556.852441 164.41565 
L 557.438374 165.29096 
L 558.024308 164.846739 
L 558.610242 165.29096 
L 559.196176 166.546282 
L 559.78211 166.062787 
L 560.368044 168.658514 
L 560.953978 166.062787 
L 561.539911 167.38953 
L 562.711779 164.846739 
L 563.297713 167.91992 
L 563.883647 165.141378 
L 564.469581 165.442092 
L 565.055515 170.258376 
L 566.227382 167.216935 
L 566.813316 169.436518 
L 567.39925 167.740972 
L 567.985184 167.38953 
L 568.571118 169.436518 
L 569.157052 166.38333 
L 569.742985 171.355444 
L 570.328919 170.687352 
L 570.914853 167.91992 
L 571.500787 169.238092 
L 572.086721 167.564192 
L 572.672655 170.258376 
L 573.258589 170.471287 
L 573.844522 168.849159 
L 574.430456 172.296681 
L 575.01639 173.565665 
L 575.602324 171.355444 
L 576.188258 170.048529 
L 576.774192 169.042329 
L 577.360126 169.042329 
L 577.946059 169.637682 
L 578.531993 168.470329 
L 579.117927 170.906666 
L 579.703861 168.658514 
L 580.289795 172.296681 
L 580.875729 169.841659 
L 581.461663 171.129329 
L 582.047596 170.687352 
L 582.63353 171.58512 
L 583.805398 172.541798 
L 584.391332 171.58512 
L 584.977266 176.820018 
L 585.5632 173.302881 
L 586.149133 170.687352 
L 586.735067 172.296681 
L 587.321001 172.791105 
L 587.906935 171.355444 
L 588.492869 172.791105 
L 589.078803 174.955681 
L 589.664737 179.347033 
L 590.25067 175.858079 
L 590.836604 178.210033 
L 591.422538 176.171728 
L 592.008472 179.347033 
L 592.594406 175.250319 
L 593.18034 175.551033 
L 593.766274 176.171728 
L 594.352207 178.9581 
L 594.938141 175.858079 
L 595.524075 174.10588 
L 596.110009 178.579271 
L 596.695943 176.171728 
L 597.281877 174.955681 
L 597.867811 177.849913 
L 598.453744 173.044749 
L 599.039678 179.746623 
L 599.625612 179.746623 
L 600.79748 178.9581 
L 601.383414 180.580228 
L 601.969348 175.858079 
L 602.555281 175.250319 
L 603.141215 182.900047 
L 603.727149 180.15747 
L 604.313083 184.492622 
L 604.899017 178.9581 
L 605.484951 175.250319 
L 606.070885 177.849913 
L 606.656818 181.015607 
L 607.242752 180.15747 
L 607.828686 179.746623 
L 608.41462 180.580228 
L 609.586488 181.464385 
L 610.172422 180.580228 
L 610.758355 181.015607 
L 611.344289 185.659975 
L 611.930223 180.15747 
L 612.516157 183.411823 
L 613.102091 189.855564 
L 613.688025 181.015607 
L 614.273959 185.064622 
L 614.859892 181.927412 
L 615.445826 183.942213 
L 616.03176 181.927412 
L 616.617694 181.015607 
L 617.203628 183.411823 
L 617.789562 184.492622 
L 618.375496 186.280669 
L 618.961429 186.928959 
L 619.547363 189.855564 
L 620.719231 181.464385 
L 621.305165 186.280669 
L 621.891099 184.492622 
L 622.477033 185.064622 
L 623.062966 185.064622 
L 623.6489 195.768916 
L 624.234834 185.659975 
L 624.820768 186.928959 
L 625.406702 181.015607 
L 625.992636 193.520764 
L 626.57857 189.855564 
L 627.164503 192.514564 
L 627.750437 182.900047 
L 628.336371 184.492622 
L 628.922305 189.855564 
L 629.508239 183.942213 
L 630.094173 183.411823 
L 630.680107 191.573326 
L 631.26604 187.607412 
L 631.851974 194.601563 
L 632.437908 181.927412 
L 633.023842 189.855564 
L 633.609776 184.492622 
L 634.781644 197.0379 
L 635.367577 187.607412 
L 635.953511 190.689169 
L 637.125379 189.067041 
L 637.711313 197.0379 
L 638.297247 194.601563 
L 638.883181 194.601563 
L 639.469114 197.0379 
L 640.055048 186.280669 
L 640.640982 195.768916 
L 641.226916 198.427915 
L 641.81285 198.427915 
L 642.398784 195.768916 
L 642.984718 198.427915 
L 643.570651 194.601563 
L 644.742519 194.601563 
L 645.328453 192.514564 
L 645.914387 191.573326 
L 646.500321 194.601563 
L 647.086255 199.964505 
L 648.258122 197.0379 
L 648.844056 192.514564 
L 649.42999 193.520764 
L 650.015924 203.629705 
L 650.601858 194.601563 
L 651.187791 198.427915 
L 651.773725 197.0379 
L 652.359659 198.427915 
L 652.945593 197.0379 
L 653.531527 197.0379 
L 654.117461 191.573326 
L 654.703395 201.682267 
L 655.289328 203.629705 
L 655.875262 198.427915 
L 656.461196 201.682267 
L 657.04713 198.427915 
L 657.633064 201.682267 
L 658.218998 215.986798 
L 658.804932 203.629705 
L 659.390865 205.877857 
L 659.976799 195.768916 
L 660.562733 203.629705 
L 661.148667 205.877857 
L 661.734601 201.682267 
L 662.320535 208.536856 
L 662.906469 211.791209 
L 663.492402 208.536856 
L 664.078336 203.629705 
L 664.66427 203.629705 
L 665.250204 208.536856 
L 665.836138 211.791209 
L 666.422072 205.877857 
L 667.008006 211.791209 
L 667.593939 201.682267 
L 668.179873 232.009091 
L 668.765807 221.90015 
L 669.351741 215.986798 
L 669.937675 205.877857 
L 670.523609 215.986798 
L 671.109543 215.986798 
L 671.695476 205.877857 
L 672.28141 232.009091 
L 672.867344 205.877857 
L 673.453278 208.536856 
L 674.039212 232.009091 
L 674.625146 208.536856 
L 675.21108 215.986798 
L 675.797013 221.90015 
L 676.382947 215.986798 
L 676.968881 215.986798 
L 677.554815 211.791209 
L 678.140749 205.877857 
L 678.726683 211.791209 
L 679.312617 211.791209 
L 679.89855 232.009091 
L 679.899545 289 
M 681.069424 289 
L 681.070418 232.009091 
L 681.071413 289 
M 682.241291 289 
L 682.242286 232.009091 
L 682.24328 289 
M 683.41288 289 
L 683.414154 215.986798 
L 684.000087 221.90015 
L 684.001258 289 
M 685.170682 289 
L 685.171955 215.986798 
L 685.757889 221.90015 
L 685.759059 289 
M 688.686564 289 
L 688.687558 232.009091 
L 688.688553 289 
M 690.444189 289 
L 690.44536 221.90015 
L 690.44653 289 
M 691.616233 289 
L 691.617228 232.009091 
L 692.203161 221.90015 
L 692.789095 232.009091 
L 693.960963 232.009091 
L 693.961957 289 
L 693.961957 289 
" clip-path="url(#p0b10c2a9eb)" style="fill: none; stroke: #ff0000; stroke-width: 1.5; stroke-linecap: square"/>
   </g>
   <g id="patch_9">
    <path d="M 405.095572 242.44 
L 405.095572 12.96 
" style="fill: none; stroke: #000000; stroke-width: 0.8; stroke-linejoin: miter; stroke-linecap: square"/>
   </g>
   <g id="patch_10">
    <path d="M 698.0625 242.44 
L 698.0625 12.96 
" style="fill: none; stroke: #000000; stroke-width: 0.8; stroke-linejoin: miter; stroke-linecap: square"/>
   </g>
   <g id="patch_11">
    <path d="M 405.095572 242.44 
L 698.0625 242.44 
" style="fill: none; stroke: #000000; stroke-width: 0.8; stroke-linejoin: miter; stroke-linecap: square"/>
   </g>
   <g id="patch_12">
    <path d="M 405.095572 12.96 
L 698.0625 12.96 
" style="fill: none; stroke: #000000; stroke-width: 0.8; stroke-linejoin: miter; stroke-linecap: square"/>
   </g>
   <g id="legend_2">
    <g id="patch_13">
     <path d="M 509.6625 56.53875 
L 689.6625 56.53875 
Q 692.0625 56.53875 692.0625 54.13875 
L 692.0625 21.36 
Q 692.0625 18.96 689.6625 18.96 
L 509.6625 18.96 
Q 507.2625 18.96 507.2625 21.36 
L 507.2625 54.13875 
Q 507.2625 56.53875 509.6625 56.53875 
z
" style="fill: #ffffff; opacity: 0.8; stroke: #cccccc; stroke-linejoin: miter"/>
    </g>
    <g id="line2d_173">
     <path d="M 512.0625 27.96 
L 524.0625 27.96 
L 536.0625 27.96 
" style="fill: none; stroke: #000000; stroke-width: 1.5; stroke-linecap: square"/>
    </g>
    <g id="text_33">
     <!-- RT Stress (Max = 279μs) -->
     <g transform="translate(545.6625 32.16)scale(0.12 -0.12)">
      <defs>
       <path id="TimesNewRomanPSMT-53" d="M 2934 4334 
L 2934 2869 
L 2819 2869 
Q 2763 3291 2617 3541 
Q 2472 3791 2203 3937 
Q 1934 4084 1647 4084 
Q 1322 4084 1109 3886 
Q 897 3688 897 3434 
Q 897 3241 1031 3081 
Q 1225 2847 1953 2456 
Q 2547 2138 2764 1967 
Q 2981 1797 3098 1565 
Q 3216 1334 3216 1081 
Q 3216 600 2842 251 
Q 2469 -97 1881 -97 
Q 1697 -97 1534 -69 
Q 1438 -53 1133 45 
Q 828 144 747 144 
Q 669 144 623 97 
Q 578 50 556 -97 
L 441 -97 
L 441 1356 
L 556 1356 
Q 638 900 775 673 
Q 913 447 1195 297 
Q 1478 147 1816 147 
Q 2206 147 2432 353 
Q 2659 559 2659 841 
Q 2659 997 2573 1156 
Q 2488 1316 2306 1453 
Q 2184 1547 1640 1851 
Q 1097 2156 867 2337 
Q 638 2519 519 2737 
Q 400 2956 400 3219 
Q 400 3675 750 4004 
Q 1100 4334 1641 4334 
Q 1978 4334 2356 4169 
Q 2531 4091 2603 4091 
Q 2684 4091 2736 4139 
Q 2788 4188 2819 4334 
L 2934 4334 
z
" transform="scale(0.015625)"/>
       <path id="TimesNewRomanPSMT-72" d="M 1038 2947 
L 1038 2303 
Q 1397 2947 1775 2947 
Q 1947 2947 2059 2842 
Q 2172 2738 2172 2600 
Q 2172 2478 2090 2393 
Q 2009 2309 1897 2309 
Q 1788 2309 1652 2417 
Q 1516 2525 1450 2525 
Q 1394 2525 1328 2463 
Q 1188 2334 1038 2041 
L 1038 669 
Q 1038 431 1097 309 
Q 1138 225 1241 169 
Q 1344 113 1538 113 
L 1538 0 
L 72 0 
L 72 113 
Q 291 113 397 181 
Q 475 231 506 341 
Q 522 394 522 644 
L 522 1753 
Q 522 2253 501 2348 
Q 481 2444 426 2487 
Q 372 2531 291 2531 
Q 194 2531 72 2484 
L 41 2597 
L 906 2947 
L 1038 2947 
z
" transform="scale(0.015625)"/>
       <path id="TimesNewRomanPSMT-39" d="M 338 -88 
L 338 28 
Q 744 34 1094 217 
Q 1444 400 1770 856 
Q 2097 1313 2225 1859 
Q 1734 1544 1338 1544 
Q 891 1544 572 1889 
Q 253 2234 253 2806 
Q 253 3363 572 3797 
Q 956 4325 1575 4325 
Q 2097 4325 2469 3894 
Q 2925 3359 2925 2575 
Q 2925 1869 2578 1258 
Q 2231 647 1613 244 
Q 1109 -88 516 -88 
L 338 -88 
z
M 2275 2091 
Q 2331 2497 2331 2741 
Q 2331 3044 2228 3395 
Q 2125 3747 1936 3934 
Q 1747 4122 1506 4122 
Q 1228 4122 1018 3872 
Q 809 3622 809 3128 
Q 809 2469 1088 2097 
Q 1291 1828 1588 1828 
Q 1731 1828 1928 1897 
Q 2125 1966 2275 2091 
z
" transform="scale(0.015625)"/>
      </defs>
      <use xlink:href="#TimesNewRomanPSMT-52"/>
      <use xlink:href="#TimesNewRomanPSMT-54" x="60.699219"/>
      <use xlink:href="#TimesNewRomanPSMT-20" x="120.033203"/>
      <use xlink:href="#TimesNewRomanPSMT-53" x="145.033203"/>
      <use xlink:href="#TimesNewRomanPSMT-74" x="200.648438"/>
      <use xlink:href="#TimesNewRomanPSMT-72" x="228.431641"/>
      <use xlink:href="#TimesNewRomanPSMT-65" x="261.732422"/>
      <use xlink:href="#TimesNewRomanPSMT-73" x="306.117188"/>
      <use xlink:href="#TimesNewRomanPSMT-73" x="345.033203"/>
      <use xlink:href="#TimesNewRomanPSMT-20" x="383.949219"/>
      <use xlink:href="#TimesNewRomanPSMT-28" x="408.949219"/>
      <use xlink:href="#TimesNewRomanPSMT-4d" x="442.25"/>
      <use xlink:href="#TimesNewRomanPSMT-61" x="531.166016"/>
      <use xlink:href="#TimesNewRomanPSMT-78" x="575.550781"/>
      <use xlink:href="#TimesNewRomanPSMT-20" x="625.550781"/>
      <use xlink:href="#TimesNewRomanPSMT-3d" x="650.550781"/>
      <use xlink:href="#TimesNewRomanPSMT-20" x="706.947266"/>
      <use xlink:href="#TimesNewRomanPSMT-32" x="731.947266"/>
      <use xlink:href="#TimesNewRomanPSMT-37" x="781.947266"/>
      <use xlink:href="#TimesNewRomanPSMT-39" x="831.947266"/>
      <use xlink:href="#TimesNewRomanPSMT-3bc" x="881.947266"/>
      <use xlink:href="#TimesNewRomanPSMT-73" x="935.560547"/>
      <use xlink:href="#TimesNewRomanPSMT-29" x="974.476562"/>
     </g>
    </g>
    <g id="line2d_174">
     <path d="M 512.0625 44.949375 
L 524.0625 44.949375 
L 536.0625 44.949375 
" style="fill: none; stroke: #ff0000; stroke-width: 1.5; stroke-linecap: square"/>
    </g>
    <g id="text_34">
     <!-- NonRT Stress (Max = 717μs) -->
     <g transform="translate(545.6625 49.149375)scale(0.12 -0.12)">
      <use xlink:href="#TimesNewRomanPSMT-4e"/>
      <use xlink:href="#TimesNewRomanPSMT-6f" x="72.216797"/>
      <use xlink:href="#TimesNewRomanPSMT-6e" x="122.216797"/>
      <use xlink:href="#TimesNewRomanPSMT-52" x="172.216797"/>
      <use xlink:href="#TimesNewRomanPSMT-54" x="232.916016"/>
      <use xlink:href="#TimesNewRomanPSMT-20" x="292.25"/>
      <use xlink:href="#TimesNewRomanPSMT-53" x="317.25"/>
      <use xlink:href="#TimesNewRomanPSMT-74" x="372.865234"/>
      <use xlink:href="#TimesNewRomanPSMT-72" x="400.648438"/>
      <use xlink:href="#TimesNewRomanPSMT-65" x="433.949219"/>
      <use xlink:href="#TimesNewRomanPSMT-73" x="478.333984"/>
      <use xlink:href="#TimesNewRomanPSMT-73" x="517.25"/>
      <use xlink:href="#TimesNewRomanPSMT-20" x="556.166016"/>
      <use xlink:href="#TimesNewRomanPSMT-28" x="581.166016"/>
      <use xlink:href="#TimesNewRomanPSMT-4d" x="614.466797"/>
      <use xlink:href="#TimesNewRomanPSMT-61" x="703.382812"/>
      <use xlink:href="#TimesNewRomanPSMT-78" x="747.767578"/>
      <use xlink:href="#TimesNewRomanPSMT-20" x="797.767578"/>
      <use xlink:href="#TimesNewRomanPSMT-3d" x="822.767578"/>
      <use xlink:href="#TimesNewRomanPSMT-20" x="879.164062"/>
      <use xlink:href="#TimesNewRomanPSMT-37" x="904.164062"/>
      <use xlink:href="#TimesNewRomanPSMT-31" x="954.164062"/>
      <use xlink:href="#TimesNewRomanPSMT-37" x="1004.164062"/>
      <use xlink:href="#TimesNewRomanPSMT-3bc" x="1054.164062"/>
      <use xlink:href="#TimesNewRomanPSMT-73" x="1107.777344"/>
      <use xlink:href="#TimesNewRomanPSMT-29" x="1146.693359"/>
     </g>
    </g>
   </g>
  </g>
 </g>
 <defs>
  <clipPath id="p203e8be282">
   <rect x="51.575572" y="12.96" width="292.966928" height="229.48"/>
  </clipPath>
  <clipPath id="p0b10c2a9eb">
   <rect x="405.095572" y="12.96" width="292.966928" height="229.48"/>
  </clipPath>
 </defs>
</svg>
